<?xml version="1.0" encoding="utf-8"?>
<!-- Generator: Adobe Illustrator 26.5.0, SVG Export Plug-In . SVG Version: 6.00 Build 0)  -->
<svg version="1.1" id="Layer_1" xmlns="http://www.w3.org/2000/svg" xmlns:xlink="http://www.w3.org/1999/xlink" x="0px" y="0px"
	 viewBox="0 0 680.93 582.43" style="enable-background:new 0 0 680.93 582.43;" xml:space="preserve">
<style type="text/css">
	.st0{fill:#282A41;}
	.st1{fill:#27132D;}
	.st2{fill:#324E5B;}
	.st3{fill:#376B6E;}
	.st4{fill:#3B9B7C;}
	.st5{fill:#DDAD44;}
	.st6{fill:#377676;}
	.st7{fill:#3EA57F;}
	.st8{fill:#3A837A;}
	.st9{fill:#3A8A7C;}
	.st10{fill:#364F5A;}
	.st11{fill:#346267;}
	.st12{fill:#E7C24A;}
	.st13{fill:#D2983F;}
	.st14{fill:#4BB05E;}
	.st15{fill:#397F79;}
	.st16{fill:#F2BE5E;}
	.st17{fill:#EED052;}
	.st18{fill:#B5613C;}
	.st19{fill:#D4E6A6;}
	.st20{fill:#458C7F;}
	.st21{fill:#F5D665;}
	.st22{fill:#69BE60;}
	.st23{fill:#2A233E;}
	.st24{fill:#99CD76;}
	.st25{fill:#3C917D;}
	.st26{fill:#459C77;}
	.st27{fill:#E1F0E3;}
	.st28{fill:#FDFEFE;}
</style>
<g>
	<path class="st0" d="M452.33,509.08c-29.44,0.06-58.89,0.16-88.33,0.17c-95,0.03-190,0.03-285,0.03c-1.33,0-2.66-0.07-3.99-0.11
		c7.72-2.11,15.33-4.78,23.17-6.2c12.99-2.37,26.13-3.93,39.2-5.84c2.12-0.33,4.24-0.67,6.37-1c1.57-0.12,3.13-0.25,5.1-0.41
		c-3.83-6.08-7.3-11.6-10.78-17.12c6.08,3,10.66,7.71,14.91,12.8c2.42,1.81,4.7,3.91,7.35,5.3c1.15,0.61,3.39,0.24,4.51-0.57
		c0.72-0.52,0.49-2.66,0.33-4.03c-0.42-3.66-1.03-7.29-1.56-10.94c1.02,1.61,2.04,3.22,3.6,5.67c0.74-5.29,1.35-9.62,1.96-13.96
		c0.29-0.06,0.58-0.13,0.87-0.19c1.02,5.59,2.05,11.19,3.17,17.32c1.36-1.11,2.54-2.06,3.71-3.01c2.78,2.7,5.56,5.39,8.34,8.09
		c0.46-1.65,0.92-3.3,1.39-4.94c0,0-0.11-0.13-0.11-0.13c1.63,0.11,3.82-0.41,4.79,0.45c2.81,2.48,4.53,1.29,6.44-0.93
		c0.32-0.37,1.25-0.22,1.9-0.32c2.34-0.34,4.68-0.69,7.02-1.03c3.03-0.35,6.05-0.7,9.08-1.04c0.65,0.08,1.3,0.16,1.95,0.24
		c0.32-0.01,0.65-0.02,0.97-0.02c0.38-0.12,0.77-0.24,1.15-0.36c1.01,0.27,2.03,0.54,3.04,0.81l0.39,0.16c0,0,0.29-0.31,0.29-0.31
		c2.95-0.51,5.91-1.02,8.86-1.53c0.66,9.09,0.66,9.09,9.85,9.08c1.48,0,2.96,0,4.44,0.01c2.4,1.22,4.35,4.25,7.74,2.18
		c-0.61-2.57-1.16-4.91-1.71-7.26c0.65-1.9,1.29-3.81,1.94-5.71c1.47,1.13,2.81,2.95,4.44,3.26c3.5,0.68,7.15,0.59,10.73,0.82
		c1.64,0.94,3.28,1.89,4.96,2.85c0.77-0.61,1.81-1.44,2.85-2.27c2.45,0,4.9,0,7.8,0c1.19-9.75,2.34-19.2,3.51-28.78
		c4.32,4.96,7.58,20.79,3.63,28.91c3.65,2.43,5.89,1.23,6.81-3.31c2.47,1.59,4.49,2.89,6.51,4.19c0,0,0.29-0.25,0.29-0.25
		c3.57,4.1,7.79,1.45,11.78,1.14c2.66,0.17,5.32,0.34,7.97,0.5c2.63,0.19,5.27,0.39,7.91,0.58c2.95,0.14,5.9,0.28,8.85,0.42
		c5.25,0.21,10.51,0.43,15.77,0.64c2.36-0.29,4.71-0.58,7.07-0.87c2.26,0.65,4.51,1.31,6.77,1.96c7.7,0.24,15.4,0.48,23.1,0.72
		c1.99,4.89,2.3,4.9,6.02,0.15c16.28,0.75,32.57,1.51,48.85,2.26C453.16,500.9,453.55,504.85,452.33,509.08z"/>
	<path class="st1" d="M246.72,495.23c-1.48,0-2.96-0.01-4.44-0.01c-9.18,0.01-9.18,0.01-9.85-9.08c0,0-0.13-0.17-0.13-0.17
		c0.28-1.43,0.8-2.86,0.81-4.29c0.2-43.38,0.37-86.75,0.45-130.13c0.01-3.46-0.74-6.92-1.13-10.38c-1.72-8.02-4.2-15.72-9.57-22.16
		c-3.22-4.19-6.55-8.31-9.64-12.59c-3.69-5.11-8.04-6.43-13.52-2.95c-0.63,0.12-1.26,0.25-1.88,0.37c-0.38,0.11-0.75,0.22-1.13,0.34
		c-3.05-0.26-6.1-0.52-9.15-0.78c4.23-2.84,8.46-5.69,12.85-8.64c-6.06-5.4-12.27-10.94-18.49-16.49c3.63-4.4,5.91,0.19,8.94,1.78
		c1.29-1.45,2.48-2.78,3.96-4.44c7.1,5.7,14.24,11.44,21.31,17.13c1.19-5.12,2.27-9.8,3.36-14.49c0.58,0.11,1.16,0.21,1.75,0.32
		c3.13,5.81,3.52,12.17,3.63,18.66c0.03,1.68,1.1,3.35,1.7,5.03c3.04,3.58,6.08,7.16,9.94,11.7c0-5.74,0-9.69,0-13.64
		c-0.56-6.51-1.11-13.02-1.7-19.89c6.69,3.12,12.8,5.97,18.91,8.82c0.12,2.82,0.35,5.63,0.35,8.45
		c0.07,57.93,0.1,115.85,0.18,173.78c0.01,4.32,0.3,8.64,0.47,12.97c-0.64,1.9-1.29,3.81-1.94,5.71
		c-2.61-9.54-3.79-19.53-8.77-28.55c-1.33,2.9-2.05,5.72-2.22,8.57C241.23,478.94,243.13,487.26,246.72,495.23z"/>
	<path class="st2" d="M253.68,289.24c-6.11-2.85-12.22-5.7-18.91-8.82c0.59,6.87,1.15,13.38,1.7,19.89
		c-3.31,0.64-6.62,1.29-9.94,1.93c-0.59-1.68-1.67-3.34-1.7-5.03c-0.1-6.48-0.49-12.84-3.63-18.66c-0.58-0.11-1.16-0.21-1.75-0.32
		c-1.09,4.68-2.17,9.37-3.36,14.49c-7.08-5.69-14.22-11.43-21.31-17.13c-1.48,1.66-2.66,2.99-3.96,4.44
		c-3.04-1.59-5.32-6.18-8.95-1.78c-4.27-5.41-9.18-4.46-14.31-1.45c-0.05,0.03-0.24-0.2-0.47-0.4c2.88-5.03,5.78-10.09,8.68-15.15
		c0.97-0.17,2.04-0.13,2.9-0.53c3.51-1.66,6.76-4.38,5.67-8.25c-0.47-1.67-4.93-2.22-7.59-3.28c0.33-4.31,1.96-7.33,6.96-6.96
		c5.56,1.9,6.75,1.51,7.19-0.86c-3.45-2.7-6.3-4.92-9.16-7.15c4.58,0.61,5.35-2.1,5.02-5.77c2.52-1.81,5.03-3.63,7.35-5.31
		c2.99,1.63,6.32,3.45,10.71,5.84c-0.65-2.6-0.92-3.68-1.19-4.77c3.43-3.78,6.52-8.01,12.13-8.85c0.42-0.06,0.71-1.01,1.06-1.55
		c1.89,0.56,3.77,1.55,5.67,1.56c2.15,0.02,5.28,0.95,5.56-2.95c5.24-4.29,10.91-5.97,17.66-3.77c2.44,0.79,5.26,0.4,7.91,0.54
		c0.01,12.71,0.01,25.41,0.02,38.12c-3.77-0.11-7.37,0.25-11.27,4.59c4.54,0.91,7.91,1.58,11.29,2.26
		C253.69,265.87,253.68,277.55,253.68,289.24z M244.92,216.24c-8.16,0.89-12.56,5.36-13.53,13.42
		C239.67,229.53,244.09,225.27,244.92,216.24z M201.37,261.02c0.63,5.16,3.7,7.53,7.63,8.62c1.19,0.33,3.61-0.89,4.15-2.03
		c0.45-0.95-0.66-3.72-1.68-4.11C208.36,262.28,204.95,261.83,201.37,261.02z M250.78,240.47c-0.32-0.91-0.64-1.81-0.96-2.72
		c-3.59,0.76-7.22,1.36-10.73,2.38c-0.96,0.28-1.54,1.83-2.3,2.79c1.2,0.7,2.67,2.24,3.54,1.95
		C243.92,243.72,247.31,241.99,250.78,240.47z M232.8,260.74c0.02-0.77,0.04-1.54,0.06-2.3c-3.87-0.4-7.74-0.81-11.6-1.21
		c-0.07,0.88-0.14,1.76-0.22,2.63C224.96,260.15,228.88,260.45,232.8,260.74z M203.2,242.34c-0.68,0.08-1.36,0.16-2.04,0.24
		c-2.16,2.17-2.04,4.48,0.15,6.58c0.48,0.46,1.85-0.01,2.81-0.05C203.81,246.85,203.51,244.6,203.2,242.34z"/>
	<path class="st3" d="M360.48,176.18c-26.78,0.05-53.56,0.11-80.34,0.16c-2.99,0.01-5.99-0.07-8.98,0.07
		c-10.2,0.5-16.96,7.38-17.36,17.57c-0.05,1.33-0.12,2.66-0.19,3.98c-0.94-1.56-1.86-3.12-2.81-4.66c-2.5-4.07-6.06-6.41-10.87-6.85
		c-2.97-0.27-3.45,1.12-2.6,3.56c-3.38,0.42-7.76-0.37-9.98,1.47c-10.43,8.62-24.83,10.97-33.76,21.77
		c-0.69-1.23-1.39-2.46-2.7-4.77c-1.87,4.62-3.36,8.3-4.83,11.91c-2.42-1.76-4.86-3.53-7.29-5.3c-0.39,0.29-0.79,0.59-1.18,0.88
		c0.76,2.41,1.51,4.82,2.27,7.23c-2.86,1.11-5.82,2.03-8.56,3.4c-1.68,0.84-3.03,2.37-4.52,3.59c-2.95,0.07-3.8,1.29-2.11,3.88
		c0.69,1.06,1.42,2.1,2.13,3.14c-1.22,2.36-2.39,4.74-3.66,7.07c-6.53,11.95-9.5,23.93-0.33,36.02c-1.98,1.32-3.96,2.64-5.95,3.96
		c-1.29-0.16-2.74,0.01-3.83-0.54c-1.79-0.9-4.88-2.56-4.72-3.37c0.44-2.21,2.28-4.14,3.56-6.18c-0.54-3-1.08-5.99-1.62-8.99
		c-3.13-3.07-6.26-6.14-9.39-9.21c-0.34-5.87-0.68-11.73-1.02-17.6c3.59-1.51,7.19-2.99,10.71-4.65c0.16-0.08-0.46-1.83-0.72-2.8
		c0.67-4.19,1.33-8.38,2-12.57c1.95-0.72,3.9-1.44,5.85-2.16c0.38-0.29,0.76-0.58,1.14-0.87c0,0,0.08-0.05,0.08-0.05
		c0.78-0.06,1.56-0.13,2.34-0.19c0.84,0.03,1.68,0.06,2.53,0.09c2.9,1.85,2.66-0.44,2.83-2.17c0,0-0.07-0.11-0.07-0.11
		c0.81-0.08,1.63-0.09,2.42-0.25c7.96-1.66,8.71-3.51,5.4-10.73c-1.6-3.5-2.09-7.42,1.41-10.62c6.37,6.66,6.37,6.66,10.23,4.51
		c9.8,3.72,18.05,0.71,20.47-7.48c1.4-1.54,2.91-3,4.17-4.64c1.7-2.21,2.72-5.37,4.9-6.72c7.96-4.94,16.06-9.77,24.56-13.67
		c4.08-1.87,9.17-1.54,13.8-2.2c6.45-0.23,9.51-3.34,11.68-11.87c7.02,0.67,14.07,1.12,21.05,2.07c10.05,1.35,20.18,0.45,29.97,5.84
		c6.29,3.46,14.58,3.7,20.99,8.11c1.27,2.02,2.54,4.04,4,6.36c1.59-1.45,2.67-2.43,3.74-3.41c2,0.03,4.01-0.1,5.98,0.1
		C357.55,168.92,360.32,171.37,360.48,176.18z M221.72,182.03c-4.01,1.12-6.57,3.58-7.38,8.66c3.49-0.6,6.8-0.73,9.75-1.85
		c1.48-0.56,2.28-2.9,3.38-4.44c-1.61-0.84-3.22-1.68-4.83-2.52C222.34,181.93,222.03,181.98,221.72,182.03z M294.55,167.78
		c-3.26-7.69-11.35-10.66-15.77-5.8C284.39,164.04,289.47,165.91,294.55,167.78z"/>
	<path class="st4" d="M347.5,70.32c2.74-1.52,5.48-3.04,8.22-4.56c0.58,4.78,1.16,9.56,1.74,14.34c-9.8-3.03-18.78,2.76-21.9,14.12
		c-9.42-2.2-18.8-4.56-28.26-6.55c-6.55-1.38-13.23-2.86-19.7,0.57c-5.19-5.47-9.12-5.43-13.89,0.14c-3.21-5.48,0.98-6.91,4.7-8.51
		c2.8-1.21,6.03-1.95,5.81-7.26c-3.9,0.93-7.38,1.76-11.43,2.73c-1.34-1.85-3.87-3.16-6.24-0.32c-2.88,3.45-5.61,6.68-10.59,6.85
		c-0.54,0.02-1.02,1.87-1.53,2.87c-4.83-0.49-9.65-1.1-14.48-1.33c-0.69-0.03-1.47,1.81-2.21,2.79c-9.15-2.22-17.52,0.35-25.92,3.75
		c-4.79,1.94-9.98,2.86-15,4.24c-1.37-0.77-2.74-1.53-4.1-2.3c-0.32,0.05-0.64,0.09-0.96,0.14c-0.24,0.13-0.49,0.24-0.75,0.33
		c-2.7,0.22-5.4,0.65-8.09,0.59c-2.09-0.05-4.16-0.7-6.24-1.09c2.85-3.88,5.69-7.75,8.54-11.63c2.5-0.56,5-1.11,7.5-1.67
		c4.99-2.45,9.99-4.9,14.98-7.35c2.61,0.01,5.23,0.01,7.84,0.02c4.4,7.58,9.61,10.04,17.55,7.86c-1.89-2.68-3.67-5.21-5.45-7.73
		c0.71-0.72,1.41-1.45,2.12-2.17c8.24,3.93,11.3,3.81,14.98-0.8c-3.7-3.42-8-4.97-13.03-4.49c1.68-2.95,3.36-5.9,5.04-8.85
		c0.64,0.11,1.29,0.21,1.93,0.32c3.18,4.21,5.94,5.09,8.76,2.26c1.78-1.79,2.86-4.28,4.25-6.45c8.48-1.82,16.23-0.66,23.06,5.2
		c1.04,0.89,3.06,0.63,4.62,0.9c6.98-0.33,14.28-1.88,19.41,4.99c-0.8,1.77-1.6,3.54-2.4,5.32c0.18,0.4,0.36,0.79,0.54,1.19
		c7.26-2.85,14.53-5.69,21.79-8.54c1.92,0.81,3.8,1.71,5.77,2.38c1.22,0.42,2.56,0.48,3.84,0.7c1.09,8.02,2.62,8.77,9.71,4.72
		c1.15-0.66,2.25-1.41,3.38-2.12c0.59,1.11,1.18,2.22,1.76,3.32c0.14,0.57,0.28,1.14,0.42,1.71c0,0,0.38,0.12,0.38,0.12l0.37-0.14
		c0.74-0.16,1.47-0.33,2.21-0.49C346.85,70.41,347.18,70.36,347.5,70.32z"/>
	<path class="st5" d="M542.03,384.29c-0.69-4.72-1.38-9.43-2.14-14.58c-4.31,4.27-8.45,2.63-12.11-0.35
		c-7.3-5.95-14.36-12.2-21.53-18.33c1.03-1.91,2.07-3.81,3.1-5.72c2.11,0.05,4.28-0.18,6.31,0.23c1.56,0.31,2.92,1.5,4.43,2.18
		c9.02,4.06,11.86,2.21,11.92-7.73c0.01-1.49,0.05-2.98,0.08-4.47c-0.05-0.7-0.1-1.39-0.16-2.09c-0.16-1.75-0.31-3.49-0.47-5.24
		c5.54-2.53,11.09-5.07,17.98-8.22c-0.41,4.79-0.84,7.7-0.85,10.61c-0.01,3.21,0.37,6.42,0.57,9.63c-0.32,0.67-0.64,1.34-0.96,2.02
		c-0.02,1.32-0.04,2.64-0.06,3.96c-0.35,1.7-0.7,3.4-1.05,5.1c0.59,0.5,1.19,0.99,1.78,1.49c0.92-1.51,1.62-3.22,2.8-4.48
		c4.45-4.75,9.05-9.36,13.59-14.02c1.01,3.46,2.03,6.91,3.04,10.37c1.24,4.85,2.49,9.71,3.73,14.56c0.39,3,0.79,6.01,1.18,9.01
		c-4.33,2.15-8.89,3.95-12.95,6.53C554.44,378.46,550.06,384.8,542.03,384.29z"/>
	<path class="st6" d="M151.87,274.17c-1.29,2.04-3.13,3.97-3.56,6.18c-0.16,0.81,2.93,2.47,4.72,3.37c1.09,0.55,2.54,0.38,3.83,0.54
		c-0.78,2.66-1.55,5.33-2.33,7.99c2.57-0.34,5.15-0.67,7.72-1.01c0.16-0.02,0.33-0.06,0.49-0.09c-0.48,4.02,1.57,5.46,5.29,5.2
		c-2.54,1.61-5.09,3.21-7.84,4.95c6,5.11,10.02,5.2,16.6,0.93c3.77,6.57,8.84,10.96,17,10.14c-0.02,0.33-0.07,0.66-0.14,0.99
		c-6.44,1.11-9.68,5.78-12.07,11.15c-3.52-1.84-6.82-3.58-10.13-5.31c0.81-1.7,1.61-3.41,2.5-5.29c-7.48-0.99-14.36,2.09-16.77,7.18
		c4.17,3.21,8.39,1.57,12.6,0.12c2.75,4.38,5.41,8.61,11.75,8.07c5.97-0.5,8.95-4.18,11.17-9.05c12.01-0.89,14.27-2.43,14.72-8.1
		c-2.54-2.93-4.7-5.41-6.86-7.9c-0.29-0.26-0.59-0.52-0.88-0.78c5.48-3.48,9.83-2.15,13.52,2.95c3.09,4.28,6.42,8.4,9.64,12.59
		c-0.06,1.08-0.13,2.17-0.19,3.25c-6.06-1.67-8.65-0.62-12.82,5.41c1.18,1.39,2.18,3.7,3.73,4.16c4.85,1.43,3.51,5.18,3.57,8.3
		c0.03,1.54-0.94,3.09-1.46,4.64c-1.65-1.53-3.3-3.06-4.95-4.59c-0.08-0.57-0.16-1.14-0.24-1.7c0.02-0.86,0.04-1.73,0.06-2.59
		c-0.88-1.47-1.51-3.94-2.68-4.24c-5.62-1.4-11.39-2.24-17.12-3.2c-0.36-0.06-0.83,0.46-1.44,0.82c0.54,2.52,1.08,5.06,1.63,7.6
		c-1.08,1.62-2.41,4.69-3.2,4.56c-2-0.33-4.36-1.7-5.49-3.39c-3.82-5.68-4.97-5.84-8.75-0.19c-3.05,4.56-6.98,5.47-11.35,2.94
		c2.36-3.42,4.76-6.89,7.46-10.8c-5.55-0.74-9.8-1.07-13.92-1.97c-1.81-0.4-3.68-1.08-3.03-4.46c0.33-1.73-3.2-4.19-4.98-6.32
		c-4.25,0.73-6.33-2.28-8.19-5.15c-1.38-2.13-0.85-4.13,2.05-4.82c1.11-0.26,2.18-0.68,3.26-1.03c1.37,2.7,2.73,5.41,4.1,8.11
		c0.65-0.06,1.3-0.11,1.95-0.17c0.13-3.33,0.71-6.73,0.27-9.98c-0.38-2.78-2.54-3.71-5.18-1.96c-1.36-2.84-2.78-5.64-4.05-8.52
		c-0.81-1.83-1.4-3.75-2.08-5.63c1.47,0.37,2.95,0.74,5.67,1.43c-1.39-1.81-2-2.61-2.62-3.4c-0.26-4.41,1.51-9.64-4.68-11.66
		c-0.11-2.72-0.21-5.44-0.32-8.15c2,1.3,4.01,2.59,6.01,3.89C146.52,271.5,149.2,272.84,151.87,274.17z"/>
	<path class="st1" d="M574.37,390.57c-1.72,24.95-3.42,49.91-5.19,74.86c-0.07,1.03-0.65,2.03-0.99,3.05
		c-1.54,0.19-3.07,0.39-4.61,0.58l0.11-0.1c-1.15,0.08-2.3,0.16-3.45,0.24c-0.48-0.01-0.96-0.03-1.44-0.04
		c-2.58,0.12-5.15,0.24-7.73,0.37c-0.96-7.86-2.08-15.71-2.85-23.59c-1.64-16.73-3.11-33.47-4.65-50.21
		C553.84,394.01,564.11,392.29,574.37,390.57z"/>
	<path class="st7" d="M192.71,78.57c-2.5,0.56-5,1.11-7.5,1.67c-6.7-1.93-12.99,0.33-15.95,6.31c-1.58,3.19-2.21,6.86-3.27,10.31
		c-2.74,2.45-5.48,4.89-8.22,7.34c-10.38,3.33-21.07,6.29-28.52,14.95c-3.64,4.23-6.28,9.32-9.37,14.02c-0.98-0.3-1.97-0.6-2.95-0.9
		c-0.68-1.51-1.4-3-2.03-4.53c-3.34-8.16-1.56-13.1,6.09-17.14c0.28-1.82,0.55-3.6,0.83-5.39c1.33,0,2.67-0.01,4-0.01
		c1.63,0.04,3.4,0.52,4.86,0.04c7.34-2.38,10.72-8.36,13.09-15.15c1.69,0.04,3.38,0.07,5.08,0.11c0.1-0.39,0.2-0.78,0.29-1.17
		c0-0.26-0.02-0.51-0.08-0.76c1.44-0.89,2.88-1.77,5.02-3.09c-6.34-2.12-5.94-5.7-3.2-9.82c1.98-0.16,3.96-0.33,5.98-0.49
		c0.09-0.21,0.34-0.52,0.28-0.74c-0.72-2.87-2.31-6.2,1.43-7.87c3.84-1.71,6.86,0.55,8.73,3.77c1.3,2.23,1.81,4.91,2.74,7.56
		c3.34,0,7.01,0,11.38,0c-2.09-3.51-3.8-6.38-5.77-9.68c2.04-0.31,3.44-0.53,4.55-0.7c-0.5-4.29-1.27-8.34-1.38-12.4
		c-0.13-4.79,3.53-6.77,7.8-4.55c3.86,2.01,5.68,6.42,4.37,11.09c-0.57,2.04-1.52,3.98-2.29,5.95c1.73,1.34,3.4,2.64,5.07,3.93
		C193.42,73.67,193.06,76.12,192.71,78.57z"/>
	<path class="st8" d="M416.54,148.47c-0.58,0.62-1.16,1.24-1.73,1.86c-4.11,2.3-8.23,4.61-12.34,6.91c-0.7-0.58-1.95-1.12-2.01-1.76
		c-0.41-4.36-3.71-5.7-7.02-6.67c-14.57-4.3-29.17-8.53-43.81-12.56c-5.67-1.56-11.5-3.89-17.23,0c-4.37-3.3-9.42-3.41-14.54-2.95
		c-2.43,0.22-4.83,0.67-7.25,1.02c-1.22-1.37-2.39-2.79-3.68-4.1c-1.06-1.08-2.25-2.03-3.38-3.03c1.72-2.98,3.44-5.95,5.16-8.93
		c1.45-0.23,3.09-1.01,4.33-0.6c9.92,3.26,21.19,1.29,30.26,7.87c0.83,0.6,2.2,0.46,3.33,0.66c5.94,8.04,13.82,10.16,24.22,8.05
		c-2.21-2.7-3.85-4.7-5.49-6.7c0.03-1.77,0.06-3.54,0.1-5.31c0.89,0.66,2.64,1.54,2.54,1.96c-0.98,3.88,2.35,3.86,4.05,3.84
		c6.45-0.11,13.42,1.24,18.36-4.8c0.47,5.51,1.31,5.97,5.71,3.15c1.25-0.8,2.51-1.59,3.76-2.38c0.21-0.04,0.39,0.02,0.53,0.18
		c-0.78,5.38,1.6,9.22,5.91,12.12c0.02,1.31-0.52,3.2,0.14,3.82C409.65,143.09,413.15,145.72,416.54,148.47z"/>
	<path class="st4" d="M119.88,133.17c3.09-4.7,5.73-9.79,9.37-14.02c7.44-8.66,18.14-11.61,28.52-14.95
		c1.69,1.52,3.71,2.81,5.01,4.61c4.14,5.71,9.51,5.52,15.36,3.76c1.54-0.47,3.09-0.89,5.1-1.46c0.21,1.64,0.36,2.87,0.52,4.11
		c-2.75,5.26-4.66,11.39-12.07,11.92c-1.17-4.38-3.59-3.44-6-1.24c-1.77,1.62-3.25,3.58-4.85,5.38c-1.87-3.14-3.75-6.28-5.12-8.58
		c1.8-2.51,3.31-4.61,4.81-6.71c-2.69-0.92-5.38-1.86-8.08-2.74c-0.45-0.15-1.21-0.22-1.45,0.03c-2.32,2.46-6.9,5.82-6.36,7.35
		c1.45,4.17,0.61,6.78-1.8,9.88c-0.89,1.14-0.71,3.13-1.01,4.73c-1.47-0.29-2.94-0.58-4.62-0.9c0.24,2.05,0.4,3.48,0.57,4.92
		c-1.71-0.68-3.42-1.36-5.13-2.03c-0.87-0.01-1.9-0.33-2.58,0.03c-5.92,3.09-9.47,7.72-9.11,14.74c-1.88,0.78-3.84,1.43-5.64,2.37
		c-5.03,2.65-2.26,7.1-2.53,10.92c-0.09,1.34-1.48,2.59-2.28,3.88c-1.03-1.34-2.94-2.69-2.93-4.03c0.02-4.62-1.7-4.76-4.93-2.57
		c-4.27-3.47-8.53-2.44-12.77,0.06c0.54-1.25,0.79-3.28,1.68-3.61c4.96-1.88,10.07-3.35,15.54-5.09c-1.26-2.25-2.72-4.84-4.42-7.85
		c2.69,0,4.88,0,7.07,0c5.21-3.32,10.42-6.64,16.27-10.36C123.45,134.64,121.66,133.91,119.88,133.17z"/>
	<path class="st9" d="M97.97,270.66c-1.84-0.02-3.68-0.04-5.52-0.06c-3.39-0.03-6.91-0.96-7.12-4.6c-0.12-2.05,2.1-4.99,4.07-6.27
		c5.74-3.72,6.43-12.14,0.76-15.55c-3.36-2.02-2.14-4.23-0.17-5.97c3.08-2.72,6.52-5.03,9.8-7.51c3.81-2.85,7.89-5.49,9.98-11.54
		c-5.76,0.4-10.28,0.72-14.79,1.03c1.78-1.62,2.3-3.11-0.27-4.52c-2.31-1.27-4.56-2.64-6.84-3.97c-2.01-1.77-4.02-3.53-7.25-6.36
		c5.1-0.47,7.22-6.77,12.15-2.1c2.34,3.02,4.68,6.05,7.02,9.07c1.38,1.55,2.75,3.11,4.5,5.08c1.25-1.88,2.85-3.34,3.24-5.08
		c0.63-2.82,1.18-6.31-3.8-5.66c-0.9-1.16-1.8-2.32-2.7-3.47c1.95-4.65,3.91-9.29,5.86-13.94c0.4-1.02,0.8-2.05,1.2-3.07
		c2.28-0.32,4.56-0.65,6.84-0.97c0.48,7.15,1.37,8.16,6.78,7.65c-0.82,1.89-1.29,4.05-2.53,5.6c-2.17,2.7-2.21,5.15-0.3,7.84
		c-2.4,3-4.93,5.92-7.1,9.08c-0.39,0.56,0.7,2.14,1.11,3.25c0,2.14,0,4.29,0,6.43c-0.47,0.93-1.4,1.89-1.33,2.77
		c0.3,3.72,0.9,7.42,1.39,11.13c-1.03,2.43-2.06,4.86-3.09,7.29c-4.69-0.47-9.38-0.94-14.07-1.41c-0.39,0.49-0.77,0.99-1.16,1.48
		c3.16,4.26,6.32,8.51,9.48,12.77c-4.95,2.5-4.17,7.16-4.32,11.47C99.2,270.6,98.58,270.63,97.97,270.66z"/>
	<path class="st10" d="M452.33,509.08c1.22-4.23,0.84-8.18-2.01-11.7c10.68,0.25,21.35,0.54,32.03,0.7
		c1.67,0.02,3.35-0.57,5.03-0.87c1.6,0.34,3.2,0.67,4.8,1.01c0,0,0.13,0.1,0.13,0.1c4.31,0.29,8.62,0.58,12.93,0.87
		c3.06,0.03,6.11,0.05,9.17,0.08c1.22-0.01,2.45-0.03,3.67-0.04c3.7,0.33,7.39,0.87,11.09,0.96c8.61,0.21,17.23,0.21,25.84,0.3
		c0.06,1.2,0.12,2.39,0.17,3.59c-1.66,0.7-3.32,1.42-4.99,2.09c-2.39,0.96-4.8,1.88-7.2,2.81c-21.26,0.11-42.52,0.24-63.79,0.3
		C470.26,509.29,461.29,509.15,452.33,509.08z"/>
	<path class="st6" d="M360.48,176.18c-0.16-4.8-2.93-7.25-9.18-7.9c-1.98-0.2-3.99-0.08-5.98-0.1c0.46-5.66,0.92-11.32,1.37-16.97
		c8.7-2.77,16.69,0,24.47,3.42c9.18,4.04,18.22,8.39,27.32,12.61c2.31,0.65,4.62,1.3,6.93,1.95c-0.33,2.34-0.67,4.68-1,7.03
		C389.77,176.19,375.12,176.19,360.48,176.18z"/>
	<path class="st11" d="M193.58,213.25c8.93-10.8,23.33-13.15,33.76-21.77c2.22-1.83,6.6-1.05,9.98-1.47
		c3.35,6.71,8,11.29,16.27,9.86c0.02,3.12,0.04,6.24,0.06,9.36c-2.65-0.15-5.47,0.25-7.91-0.54c-6.74-2.2-12.42-0.52-17.66,3.77
		c-2.77-1.25-5.47-2.74-8.35-3.61c-1.1-0.34-3.09,0.38-3.81,1.3c-0.48,0.6,0.57,2.42,0.94,3.7c-0.35,0.54-0.64,1.48-1.06,1.55
		c-5.6,0.84-8.69,5.07-12.13,8.85c-3.05-2.53-6.11-5.07-9.84-8.16C193.82,215.88,193.7,214.57,193.58,213.25z"/>
	<path class="st1" d="M519.17,275.77c-5.19-1.04-7.05-4.63-6.86-9.46c0.23-5.84,4.17-7.85,9.22-8.07
		c2.48-8.69,9.65-12.44,17.16-8.74c2.06,1.01,3.73,3.59,4.71,5.83c1.39,3.17,1.95,6.69,2.9,10.05c2.31,8.26-1.05,14.9-6.02,21.07
		c-0.98-1.41-2.24-2.7-2.87-4.25c-0.6-1.46-0.54-3.19-0.77-4.8c-1.5,0.63-3.01,1.26-4.61,1.94
		C525.33,273.7,525.33,273.7,519.17,275.77z"/>
	<path class="st7" d="M229.75,69.2c-0.71,0.72-1.41,1.45-2.12,2.17c-3.74-3.55-8.15-4.75-13.63-3.87c0.58,1.41,1.05,2.57,1.53,3.74
		c-2.61-0.01-5.23-0.01-7.84-0.02c0.19-2.25,0.38-4.51,0.57-6.76c-2.49,0.16-5.03,0.1-7.47,0.57c-1.39,0.26-2.61,1.37-3.91,2.1
		c-0.52-2.21-1.33-4.4-1.51-6.64c-0.42-5.21-0.55-10.44-0.8-15.9c4.49-1.61,9.12,0.88,11.51,6.62c0.45,1.08,1.61,1.86,2.44,2.78
		c1.25,1.42,2.5,2.85,3.74,4.25c4.86-4.47,4.33-6.93-1.71-9.91c-0.33-2.39-0.67-4.78-1-7.16c2.59-0.07,5.3-0.65,7.73-0.05
		c1.9,0.47,3.77,2.13,5.09,3.72c3.91,4.71,8.31,8.59,14.36,10.22c-1.68,2.95-3.36,5.9-5.04,8.85
		C229.28,65.02,227.21,66.26,229.75,69.2z"/>
	<path class="st12" d="M318.01,491.01c-3.99,0.3-8.21,2.96-11.78-1.14c5.67-18.19,16.15-33.59,27.33-48.58
		c0.43,0.15,0.87,0.3,1.3,0.45c-1.44,7.33-2.89,14.66-4.47,22.71c4.26-1.83,7.96-3.42,11.67-5.01
		C335.16,470.85,327.95,481.98,318.01,491.01z"/>
	<path class="st13" d="M548.22,342.24c0.32-0.67,0.64-1.34,0.96-2.02c0.34-3,0.67-6,1.01-8.99c4.23-1.72,8.43-3.51,12.69-5.14
		c4.58-1.75,9.03-4.86,14.23-1.79c0.15,0.08,0.34,0.12,0.44,0.23c11.4,12.83,11.44,12.83,1.32,26.78c-2.04,2.81-4.53,5.28-6.82,7.9
		c-1.24-4.85-2.49-9.71-3.73-14.56c4.64-5.36,4.18-6.94-3.04-10.37c-4.54,4.66-9.15,9.27-13.59,14.02c-1.18,1.26-1.88,2.98-2.8,4.48
		c-0.59-0.5-1.19-0.99-1.78-1.49c0.35-1.7,0.7-3.4,1.05-5.1C548.18,344.88,548.2,343.56,548.22,342.24z"/>
	<path class="st12" d="M550.19,331.23c-0.34,3-0.67,6-1.01,8.99c-0.21-3.21-0.58-6.42-0.57-9.63c0.01-2.91,0.44-5.82,0.85-10.61
		c-6.9,3.15-12.44,5.68-17.98,8.22c-0.35-7.13-0.6-14.27-1.1-21.39c-0.27-3.89,0.25-6.92,4.85-7.64c0.65-0.1,1.17-1.04,1.75-1.6
		c2.48-0.8,4.97-1.6,7.45-2.4c4.29-0.99,7.39,0.69,10.07,4.04c2.74,3.44,5.86,6.57,8.81,9.84c-9.03,2.15-13.12,7.21-13.12,16.22
		C550.18,327.26,550.19,329.24,550.19,331.23z"/>
	<path class="st11" d="M277.67,489.11c-1.04,0.83-2.08,1.66-2.85,2.27c-1.68-0.97-3.32-1.91-4.96-2.85
		c3.37,0.02,2.35-2.31,2.24-4.16c-1.25-20.21,1-40.14,4.88-59.93c0.38-1.92,1.21-3.75,3.12-5.78c0.52,2.54,1.28,5.06,1.52,7.62
		c1.91,20,0.87,39.82-3.83,59.4C277.51,486.76,277.69,487.96,277.67,489.11z"/>
	<path class="st13" d="M574.37,390.57c-10.27,1.72-20.53,3.44-30.8,5.16c-0.31-0.15-0.42-0.39-0.35-0.72
		c-0.3-1.92-0.59-3.85-0.89-5.77c-0.1-1.65-0.21-3.3-0.31-4.95c8.03,0.52,12.41-5.83,18.25-9.53c4.06-2.58,8.62-4.38,12.95-6.53
		c1.61,6.26,3.19,12.52,4.84,18.77C579,390.5,576.41,390.21,574.37,390.57z"/>
	<path class="st7" d="M298.77,62.27c-5.14-6.87-12.43-5.32-19.42-4.99c-1.28-2.26-2.3-4.73-3.87-6.75
		c-4.86-6.24-5.01-11.4-0.5-17.66c2.43-3.37,5.1-2.89,6.5,0.14c1.36,2.95,1.48,6.56,1.7,9.9c0.16,2.52-0.39,5.08-0.72,8.65
		c5.55-3.95,9.28-10.84,15.74-8.21c4.53,1.85,9.27,5.57,9.76,11.77C304.89,57.51,301.83,59.89,298.77,62.27z"/>
	<path class="st14" d="M367.37,92.2c0.7,1.37,1.4,2.74,2.09,4.11c0.32,0.09,0.65,0.18,0.97,0.27c0.7,0,1.39-0.01,2.09-0.01
		c4.05,2.14,8.09,4.29,12.14,6.43c-0.44,0.34-0.87,0.69-1.31,1.03c0.08,1.85,0.16,3.69,0.24,5.54c0,0.57-0.01,1.13-0.02,1.7
		c-4.78,4.35-8.29-1.31-12.43-1.75c-1.66,4.62-1.66,4.62-6.23,4.68c-2.15,0.03-4.3,0.05-6.44,0.07c-0.63-1.03-1.25-2.06-1.88-3.09
		c-1.7-4.67-3.41-9.35-5.11-14.02c0.74-1.7,1.48-3.41,2.23-5.11c2.68,0.05,5.37,0.11,8.05,0.16
		C363.64,92.21,365.51,92.2,367.37,92.2z"/>
	<path class="st15" d="M99.81,270.57c0.15-4.31-0.63-8.97,4.32-11.47c4.91,1.37,9.82,2.73,14.73,4.1c-0.52,2.75-0.89,5.53-1.6,8.23
		c-1.25,4.71-0.21,8.17,4.71,9.86c-1.25,1.22-2.48,2.45-3.75,3.64c-2.47,2.32-4.95,4.63-7.43,6.94c-2.37,0.32-4.91,1.36-7.08,0.83
		c-5.89-1.42-7.36-6.77-3.5-11.42c0.84-1.01,1.77-1.93,2.65-2.89c0.96,0.2,2.02,0.79,2.85,0.54c2.1-0.63,4.08-1.63,6.11-2.48
		c-1.59-1.64-2.9-3.85-4.83-4.77C104.89,270.68,102.22,270.89,99.81,270.57z"/>
	<path class="st3" d="M163.6,481.18c0.53,3.64,1.14,7.28,1.56,10.94c0.16,1.37,0.39,3.51-0.33,4.03c-1.12,0.8-3.36,1.18-4.51,0.57
		c-2.65-1.4-4.92-3.49-7.35-5.3c-0.47-3.48-0.24-7.26-1.57-10.38c-1.92-4.51-4.97-8.53-7.73-13.08c6.61-1.39,0.58-5.76,2.7-8.87
		c1.29,1.71,2.47,3.28,3.66,4.85c0.62-0.24,1.38-0.34,1.85-0.75c1.05-0.92,1.97-2,2.94-3.02c0,0,0.01,0.13,0.01,0.13
		c-0.16,0.24-0.17,0.49-0.03,0.75C157.73,467.75,160.66,474.46,163.6,481.18z"/>
	<path class="st16" d="M515.7,393.32c-56.52-5.82-113.02,0.26-169.63-0.86c1.35-0.21,2.7-0.56,4.06-0.6
		c16.96-0.53,33.92-1.08,50.88-1.45c3.38-0.07,6.78,0.89,10.17,0.87c2.71-0.01,5.42-1.16,8.12-1.16
		c24.57,0.02,49.15,0.14,73.72,0.33c5.96,0.05,11.92,0.42,17.87,0.72c1.66,0.08,3.3,0.45,4.95,0.69
		C515.81,392.35,515.76,392.83,515.7,393.32z"/>
	<path class="st15" d="M144.79,306.22c-1.09,0.35-2.16,0.77-3.26,1.03c-2.9,0.69-3.43,2.69-2.05,4.82c1.86,2.87,3.94,5.88,8.19,5.15
		c-1.21,7.55-2.23,8.57-9.94,9.94l0.1,0.07c-2.92-4.07-2.92-4.07,0.78-10.85c-5.11,0.65-11.16,6.49-14.15-2.51
		c1.01-3.2,2.03-6.4,3.04-9.6c3.49-1.69,6.98-3.39,10.48-5.08c2.28,2.01,4.56,4.02,6.84,6.02
		C144.81,305.55,144.8,305.88,144.79,306.22z"/>
	<path class="st17" d="M232.3,485.97c0,0,0.14,0.17,0.13,0.17c-2.96,0.51-5.91,1.02-8.86,1.53c-0.27-0.15-0.5-0.1-0.68,0.14
		c-1.01-0.27-2.03-0.54-3.04-0.81c-3.04-9.7-0.94-19.37,0.19-29.03c0.4-3.39,1.22-6.72,1.86-10.08c0.44-0.07,0.88-0.14,1.32-0.21
		C226.24,460.44,229.27,473.21,232.3,485.97z"/>
	<path class="st18" d="M544.43,295.17c-2.48,0.8-4.97,1.6-7.45,2.4c-0.7-1.3-1.4-2.6-2.14-3.98c-11.01-1.25-12.72-3.18-15.67-17.83
		c6.16-2.06,6.16-2.06,12.85,3.58c1.6-0.67,3.11-1.3,4.61-1.94c0.23,1.61,0.17,3.34,0.77,4.8c0.63,1.55,1.89,2.84,2.87,4.25
		C541.66,289.36,543.04,292.26,544.43,295.17z"/>
	<path class="st5" d="M550.19,331.23c0-1.98-0.01-3.97-0.01-5.95c0-9.01,4.09-14.07,13.12-16.22c0,0-0.03-0.02-0.03-0.02
		c0.27,0.39,0.54,0.79,0.81,1.18c4.34,4.69,8.69,9.39,13.03,14.08c-5.2-3.07-9.65,0.04-14.23,1.79
		C558.62,327.72,554.42,329.51,550.19,331.23z"/>
	<path class="st11" d="M626.75,509.13c-19.15-0.03-38.3-0.06-57.44-0.08c-0.42-1.36-0.85-2.73-1.27-4.09
		c0.03-1.01,0.07-2.03,0.1-3.04c19.14,2.14,38.28,4.28,57.42,6.46C625.98,508.42,626.36,508.87,626.75,509.13z"/>
	<path class="st18" d="M185.25,495.1c-2.78-2.69-5.56-5.39-8.34-8.09c-1.7-12.79-3.41-25.57-5.11-38.36
		c0.67-0.17,1.35-0.33,2.02-0.5c4.23,13.61,8.47,27.22,12.7,40.83c0,0.35,0.01,0.7,0.01,1.05c0,0,0.11,0.13,0.11,0.13
		C186.18,491.8,185.72,493.45,185.25,495.1z"/>
	<path class="st12" d="M401.47,495.12c-3.72,4.75-4.03,4.74-6.02-0.15c1.47-12.87,4.6-25.14,12.87-35.65
		C410.71,472.18,406.78,483.78,401.47,495.12z"/>
	<path class="st10" d="M186.53,490.03c0-0.35,0-0.7-0.01-1.05c1.13,0.07,2.26,0.13,3.47,0.21c-2.79-10.97-5.53-21.72-8.26-32.47
		c0.6-0.2,1.2-0.41,1.8-0.61c2.88,6.04,5.76,12.09,8.95,18.77c0.65-2.22,1.12-3.85,1.83-6.31c3.35,5.35,3.62,10.54,3.53,15.92
		c-0.03,1.57,1.19,3.16,1.83,4.74c-0.65,0.09-1.58-0.06-1.9,0.32c-1.92,2.22-3.63,3.41-6.44,0.93
		C190.35,489.62,188.16,490.14,186.53,490.03z"/>
	<path class="st16" d="M359.46,263.23c9.91-1.08,19.8-2.41,29.73-3.15c5.32-0.39,10.71,0.37,16.07,0.36
		c3.93-0.01,7.87-0.68,11.8-0.59c8.24,0.19,16.47,0.63,24.7,1.09c12.37,0.69,24.74,1.48,37.11,2.23c1.81,0.11,3.62,0.29,5.44,0.43
		c0.01,0.47,0.02,0.95,0.02,1.42c-10.44-0.5-20.96-0.41-31.32-1.62c-25.84-3.02-51.64-3.24-77.52-0.66
		c-5.28,0.53-10.63,0.28-15.95,0.39L359.46,263.23z"/>
	<path class="st16" d="M334.95,263.27c-1.52-1.65-3.03-3.3-4.63-5.03c-2.75,1.4-6.19,3.42-9.84,4.95
		c-7.28,3.06-8.29,2.63-12.58-4.14c6.7-5.79,12.52-12.97,21.73-14.86c0.34,0.46,0.68,0.91,1.02,1.37
		c-3.61,2.77-7.16,5.61-10.85,8.27c-2.15,1.55-4.71,2.57-6.72,4.26c-1.05,0.88-1.31,2.71-1.93,4.1c1.38,0.29,2.91,1.13,4.1,0.78
		c7.92-2.33,15.06-5.86,20.09-12.92c3.17-4.45,6.89-8.5,10.49-12.63c0.65-0.74,1.87-0.97,2.83-1.44c0.39,0.38,0.79,0.76,1.18,1.15
		c-3.37,4.09-6.71,8.21-10.14,12.25c-1.29,1.51-2.92,2.74-4.19,4.26c-3.62,4.32-2.93,7.13,2.18,9.47
		C336.78,263.17,335.87,263.22,334.95,263.27z"/>
	<path class="st16" d="M431.78,360.11c-6.16-0.3-12.39-0.09-18.45-1.01c-20.09-3.04-40.14-1.29-60.22-0.29
		c-7.94,0.39-15.91,0.57-23.84,0.18c-3.17-0.15-6.26-2.09-10.22-3.51c2.66-1.78,4.33-2.9,5.99-4.02c0.2,0.21,0.4,0.43,0.61,0.64
		c-0.63,1.01-1.26,2.01-1.96,3.13c0.37,0.33,0.69,0.87,1.07,0.91c5.24,0.54,10.51,1.52,15.74,1.38c13.12-0.35,26.24-1.88,39.34-1.72
		c17.35,0.2,34.69,1.56,52.04,2.41C431.84,358.84,431.81,359.47,431.78,360.11z"/>
	<path class="st12" d="M416.54,148.47c-3.39-2.75-6.89-5.38-10.08-8.35c-0.66-0.62-0.13-2.51-0.14-3.82
		c1.38-2.5,2.77-4.99,4.15-7.48c2.65-0.74,5.29-1.49,7.94-2.23c0.48,0.36,0.96,0.73,1.45,1.09c-1.37,3.79-2.74,7.57-3.9,10.76
		c3.62,2.18,7.71,4.63,11.79,7.08c-0.16,0.76-0.33,1.51-0.49,2.27C423.69,148.01,420.12,148.24,416.54,148.47z"/>
	<path class="st18" d="M568.15,501.91c-0.03,1.01-0.07,2.03-0.1,3.04c-0.57,0.06-1.15,0.12-1.72,0.18
		c-1.39-0.26-2.79-0.51-4.18-0.77c0,0-0.06-0.12-0.06-0.12c0.17-2.98,0.62-5.97,0.43-8.92c-0.3-4.73-1.03-9.42-1.57-14.13
		c-0.23-4-0.46-7.99-0.69-11.99c1.15-0.08,2.3-0.16,3.45-0.24c0,0-0.11,0.1-0.11,0.1c1.54-0.19,3.07-0.39,4.61-0.58
		C568.18,479.62,568.16,490.77,568.15,501.91z"/>
	<path class="st17" d="M89.88,162.62c4.24-2.51,8.5-3.54,12.77-0.07c-0.62,6.42-1.25,12.85-1.87,19.27l-0.29,0.38
		c-6.33-3.47-11.26-7.93-11.12-15.91C89.39,165.06,89.7,163.84,89.88,162.62z"/>
	<path class="st19" d="M150.88,75.36c-2.73,4.12-3.13,7.7,3.2,9.82c-2.14,1.32-3.58,2.2-5.02,3.09c-6.48-2.66-11.62-6.8-12.88-14
		c-0.42-2.42,1.06-5.17,1.66-7.77c2.4,0.81,5.12,1.16,7.1,2.56C147.27,70.68,148.93,73.22,150.88,75.36z"/>
	<path class="st17" d="M94.98,220.21c4.51-0.32,9.03-0.63,14.79-1.03c-2.09,6.04-6.16,8.69-9.98,11.54
		c-5.41,1.41-10.83,2.79-17.54-0.72C86.85,226.46,90.92,223.33,94.98,220.21z"/>
	<path class="st7" d="M328.3,63.33c-1.28-0.22-2.62-0.29-3.84-0.7c-1.96-0.67-3.85-1.58-5.77-2.38c-0.19-0.28-0.37-0.56-0.56-0.83
		c1.3-4.88,2.6-9.76,3.89-14.64c0,0,0-0.09,0-0.09c0.31,0.08,0.49-0.03,0.55-0.35c1.33-1.45,2.65-2.9,3.98-4.35
		c4.7,0.02,6.36,2.65,5.09,6.81c-0.95,3.09-2.75,5.92-4.17,8.86c-1.25,2.6-3.05,5.27,0.96,7.17C328.45,63,328.4,63.17,328.3,63.33z"
		/>
	<path class="st8" d="M333.89,492.1c-2.64-0.19-5.28-0.39-7.91-0.58c2.59,0.18,3.89-0.89,5.14-3.39
		c5.18-10.33,12.6-18.89,21.92-25.83c-3.09,10.22-8.9,18.66-16.33,26.11C335.63,489.49,334.82,490.86,333.89,492.1z"/>
	<path class="st10" d="M305.93,490.12c-2.02-1.3-4.04-2.6-6.51-4.19c-0.92,4.54-3.16,5.74-6.81,3.31c1.59,0.08,3.18,0.16,3.84,0.2
		c1.59-9.42,3.08-18.3,4.57-27.18c1.88,1.26,5.72-0.26,5.53,3.93c-0.52,7.29-1.06,14.58-1.5,21.88
		C305.01,488.72,305.62,489.43,305.93,490.12z"/>
	<path class="st18" d="M555.2,504.07c-0.06-1.2-0.12-2.39-0.17-3.59c-1.32-10.32-2.63-20.63-3.95-30.95
		c2.58-0.12,5.15-0.24,7.73-0.37c0.18,10.28,0.35,20.55,0.53,30.83c0.09,1.1,0.18,2.21,0.27,3.31c-0.16,0.38-0.31,0.76-0.47,1.14
		c-0.65-0.01-1.3-0.02-1.95-0.03C556.52,504.29,555.86,504.18,555.2,504.07z"/>
	<path class="st20" d="M144.82,305.21c-2.28-2.01-4.56-4.02-6.84-6.02c-1.16-0.94-2.24-2.54-3.5-2.7
		c-3.87-0.49-7.82-0.43-11.73-0.59c0.34-1.87,0.68-3.73,1.02-5.6c0.19-2.7,0.39-5.4,0.58-8.1c1.24-0.28,2.48-0.57,3.72-0.85
		c0.69,3.75,1.37,7.49,2.06,11.24c0.28,0.11,0.56,0.22,0.84,0.33c1.03-2.66,2.07-5.31,3.1-7.97c1.91,1.04,3.82,2.08,5.73,3.11
		c0.69,1.88,1.27,3.81,2.08,5.63c1.27,2.87,2.69,5.68,4.05,8.52C145.55,303.22,145.18,304.22,144.82,305.21z"/>
	<path class="st10" d="M215.77,487.15c-3.03,0.35-6.05,0.7-9.08,1.04c-1.69-5.64-3.42-11.28-5.07-16.93
		c-0.63-2.18-1.08-4.42-1.88-7.78C209.07,469.69,215.05,476.64,215.77,487.15z"/>
	<path class="st17" d="M400.42,124.17c-0.14-0.16-0.32-0.22-0.53-0.18c-1.15-4.6-2.3-9.21-3.45-13.81c1-1.57,2.01-3.15,3.01-4.72
		c2.79-2.04,5.69-2.78,8.52-0.24c3.11,2.8,3.37,6.41,1.81,9.96c-0.97,2.19-2.79,4-4.22,5.97
		C403.85,122.16,402.13,123.17,400.42,124.17z"/>
	<path class="st4" d="M405.41,169.18c-2.31-0.65-4.62-1.3-6.93-1.95c1.33-3.33,2.66-6.66,3.99-9.98c4.11-2.3,8.22-4.61,12.34-6.91
		c0.54,0.93,1.09,1.86,1.63,2.78c-1.38,4.06-2.75,8.11-4.13,12.17C410.01,166.58,407.71,167.88,405.41,169.18z"/>
	<path class="st16" d="M434,330.18c-29.8-6.67-59.5-3.55-89.2,0.3C374.47,324.05,404.18,321.87,434,330.18z"/>
	<path class="st21" d="M368.17,74.95c0.17-2.11,0.33-4.21,0.5-6.32c6.7,0.75,10.69,3.63,11.7,8.28c1.06,4.92-1.79,10.12-7.81,13.91
		c-0.75-2.17-1.47-4.28-2.19-6.38C369.63,81.28,368.9,78.11,368.17,74.95z"/>
	<path class="st17" d="M328.3,63.33c0.1-0.15,0.15-0.32,0.14-0.51c0.99-2.4,1.97-4.81,3.17-7.73c1.02,1.69,1.72,2.83,2.69,4.45
		c0.95-1.2,1.6-2.02,2.24-2.85c2.92-0.24,7.69-1.66,8.42-0.51c2.26,3.56-1.07,6.53-3.31,9.32c-0.1,0.13-0.18,0.27-0.27,0.41
		c-1.13,0.71-2.23,1.46-3.38,2.12C330.92,72.1,329.39,71.35,328.3,63.33z"/>
	<path class="st1" d="M490.2,334.42c-3.51-6.42-7.02-12.85-10.53-19.27c0.46-0.4,0.93-0.79,1.39-1.19
		c6.04,5.77,12.08,11.54,18.12,17.31c0.32,0.37,0.65,0.75,0.97,1.12c0,0-0.08-0.09-0.08-0.09c-0.33,1.96-0.66,3.91-0.99,5.87
		c-3.95,2.01-6.27-0.86-8.85-2.96c0,0,0.02,0.07,0.02,0.07C490.48,334.98,490.46,334.69,490.2,334.42z"/>
	<path class="st8" d="M215.68,344.76c0.52-1.55,1.49-3.1,1.46-4.64c-0.06-3.11,1.28-6.87-3.57-8.3c-1.55-0.46-2.55-2.77-3.73-4.16
		c4.17-6.03,6.77-7.08,12.82-5.41c-0.9,2.4-1.81,4.8-2.71,7.2c0.41-0.17,0.82-0.34,1.24-0.51c1.51,2.96,3.03,5.92,4.54,8.88
		c-2.21,0.92-4.43,1.84-6.64,2.76c0.25,0.29,0.5,0.58,0.75,0.87C218.44,342.55,217.06,343.65,215.68,344.76z"/>
	<path class="st21" d="M143.78,90.09c-2.37,6.78-5.75,12.76-13.09,15.15c-1.46,0.47-3.23,0-4.86-0.04c0.95-3.05,1.91-6.11,2.86-9.16
		c0,0,0.09,0.16,0.09,0.16c0.32-0.43,0.64-0.85,0.97-1.28c0.04-0.45,0.08-0.9,0.12-1.36c2.6-2.1,5.21-4.19,7.81-6.29
		C139.7,88.21,141.74,89.15,143.78,90.09z"/>
	<path class="st22" d="M119.88,133.17c1.79,0.74,3.57,1.47,6.13,2.53c-5.85,3.72-11.06,7.04-16.27,10.36
		c-1.04-0.83-2.24-1.52-3.09-2.51c-1.3-1.52-3.39-3.35-3.24-4.86c0.16-1.58,2.32-3.56,4.05-4.24c2.97-1.18,6.29-1.5,9.46-2.18
		C117.91,132.57,118.89,132.87,119.88,133.17z"/>
	<path class="st7" d="M341.39,65.92c0.09-0.14,0.16-0.29,0.27-0.41c2.25-2.79,5.58-5.76,3.31-9.32c-0.73-1.15-5.5,0.27-8.42,0.51
		c-0.74-0.9-1.48-1.79-1.59-1.93c2.07-1.03,4.54-1.76,6.37-3.27c5.59-4.62,10.44-4.83,14.28-0.69c-4.2,6.23-8.33,12.34-12.45,18.44
		C342.57,68.14,341.98,67.03,341.39,65.92z"/>
	<path class="st12" d="M501.01,157.31c-5.02,0-10.08,0.31-15.07-0.11c-3.35-0.28-6.57-2.65-5.73-6.09c0.44-1.82,4.32-3.77,6.75-3.93
		c6.61-0.44,10.56,4.15,14.36,8.57C501.22,156.27,501.11,156.79,501.01,157.31z"/>
	<path class="st12" d="M402.41,294.47c11.55,0.2,23.11,0.39,34.66,0.59c0.51,0.01,1.01,0.02,1.52,0.03c4.18,0,8.36,0,12.55,0
		c-0.01,0.34-0.02,0.69-0.02,1.03c-34.2,0-68.39,0-102.59,0c0.02-0.51,0.03-1.01,0.05-1.52c12.62-0.04,25.25-0.07,37.87-0.11
		C391.77,294.48,397.09,294.48,402.41,294.47z"/>
	<path class="st23" d="M472.95,100.9c2.94,9.91-0.07,17.01-9.21,22.33C461.97,113.57,465.22,105.5,472.95,100.9z"/>
	<path class="st24" d="M318.14,59.41c0.19,0.28,0.37,0.56,0.56,0.83c-7.26,2.85-14.53,5.69-21.79,8.54
		c-0.18-0.4-0.36-0.79-0.54-1.19c0.8-1.77,1.6-3.54,2.4-5.32c3.06-2.38,6.12-4.76,9.19-7.14C312.32,54.23,315.26,56.74,318.14,59.41
		z"/>
	<path class="st24" d="M196.89,67.13c1.3-0.73,2.52-1.84,3.91-2.1c2.44-0.46,4.97-0.41,7.47-0.57c-0.19,2.25-0.38,4.51-0.57,6.76
		c-4.99,2.45-9.99,4.9-14.98,7.35c0.35-2.45,0.71-4.9,1.06-7.35C194.81,69.85,195.85,68.49,196.89,67.13z"/>
	<path class="st3" d="M358.51,493.15c-5.26-0.21-10.51-0.43-15.77-0.64c3.63,0,7.26,0,10.19,0c3.93-8.05,7.86-16.09,11.79-24.13
		c0.69,0.29,1.39,0.59,2.08,0.88C366.47,477.99,362.13,485.45,358.51,493.15z"/>
	<path class="st25" d="M399.45,105.46c-1,1.57-2.01,3.15-3.01,4.72c-0.01,0.36-0.03,0.72-0.04,1.08c-4.27,1.65-8.55,1.93-12.82,0.01
		c0-0.57,0.01-1.13,0.01-1.7c2.26-2.46,4.51-4.92,6.77-7.38c0.94-1.9,1.88-3.8,2.82-5.7C398.74,97.05,397.71,102.23,399.45,105.46z"
		/>
	<path class="st17" d="M253.59,199.87c-8.28,1.44-12.92-3.15-16.27-9.86c-0.84-2.44-0.37-3.83,2.6-3.56
		c4.81,0.44,8.37,2.78,10.87,6.85c0.95,1.54,1.87,3.1,2.81,4.66C253.6,198.6,253.59,199.23,253.59,199.87z"/>
	<path class="st17" d="M122.74,295.9c3.92,0.15,7.86,0.09,11.73,0.59c1.26,0.16,2.34,1.76,3.5,2.7c-3.49,1.69-6.98,3.39-10.47,5.08
		c-2.58,0.11-5.17,0.21-7.75,0.32c-1.83-0.49-3.67-0.98-6.79-1.82C116.89,300.02,119.81,297.96,122.74,295.9z"/>
	<path class="st23" d="M454.45,61.19c5.16,7.15,3.2,14.76-5.22,20.21C446.11,73.31,448.17,65.33,454.45,61.19z"/>
	<path class="st26" d="M451.4,119.96c4.19,8.31,1,16.97-7.08,20.1C441.62,131.34,444,124.38,451.4,119.96z"/>
	<path class="st21" d="M357.45,80.1c-0.58-4.78-1.16-9.56-1.74-14.34c4.04-1.93,7.58-0.81,8.69,3.38c0.77,2.9,0.4,6.1,0.54,9.17
		c-1.58,2.68-3.16,5.36-4.74,8.04c-0.56-0.38-1.12-0.76-1.68-1.13C358.17,83.51,357.81,81.81,357.45,80.1z"/>
	<path class="st3" d="M518.09,499.22c-1.23,0.01-2.45,0.03-3.67,0.04c4.44-9.55,8.87-19.09,13.31-28.64
		c0.55,0.24,1.1,0.47,1.66,0.71C528.52,481.72,523.96,490.71,518.09,499.22z"/>
	<path class="st25" d="M106.89,189.26c-1.95,4.65-3.91,9.29-5.86,13.94c-2.41-1.65-4.83-3.3-7.24-4.95
		c-0.32-0.59-0.65-1.19-0.97-1.78c-2.66-3.82-1.94-5.84,2.91-8.21c1.77,0.34,3.53,0.69,5.3,1.03
		C102.98,189.27,104.94,189.27,106.89,189.26z"/>
	<path class="st26" d="M95.73,188.25c-4.85,2.37-5.57,4.39-2.91,8.21c-5.56-1.86-11.12-3.72-16.65-5.57
		C79.83,183.57,88.74,182.24,95.73,188.25z"/>
	<path class="st12" d="M498.6,125.39c-1.77,8.54-7.67,13.14-17.53,13.98C481.96,132.06,488.15,127.01,498.6,125.39z"/>
	<path class="st14" d="M421.56,167.15c5.4-1.11,10.7-1.77,15.73,4.13c-8.48-0.57-13.87,7.09-21.92,4.93
		C417.43,173.2,419.5,170.17,421.56,167.15z"/>
	<path class="st20" d="M143.75,496.14c-2.13,0.33-4.25,0.67-6.37,1c-0.37-1.16-0.52-2.46-1.16-3.45c-3.48-5.45-7.09-10.83-9.9-16.73
		C134.45,481.43,139.7,488.26,143.75,496.14z"/>
	<path class="st17" d="M124.34,282.2c-0.19,2.7-0.39,5.4-0.58,8.1c-7.52,7.03-7.52,7.03-12.97,7.26c0-1.91,0-3.8,0-5.69
		c2.48-2.31,4.96-4.61,7.43-6.94c1.27-1.19,2.5-2.43,3.75-3.64C122.75,281.59,123.55,281.9,124.34,282.2z"/>
	<path class="st8" d="M421.56,167.15c-2.07,3.02-4.13,6.04-6.2,9.07c-3.65-0.01-7.31-0.01-10.96-0.02c0.33-2.34,0.67-4.68,1-7.03
		c2.3-1.3,4.6-2.6,6.9-3.9c3.05,0.34,6.11,0.67,9.16,1.01C421.45,166.58,421.48,166.87,421.56,167.15z"/>
	<path class="st12" d="M205.31,370.38c-1.85-8.99,0.47-15.84,6.93-21.49C214.78,356.04,212.28,364.2,205.31,370.38z"/>
	<path class="st17" d="M119.91,95.04c-9.25,1.78-14.89-2.14-15.02-10.12C112.51,83.74,118.07,87.38,119.91,95.04z"/>
	<path class="st26" d="M92.77,203.26c-4.93-4.67-7.05,1.64-12.15,2.1c3.23,2.83,5.24,4.6,7.25,6.36c-4.39,0-8.78,0-13.21,0
		c1.42-8.13,11.12-14.53,18.24-12.25C92.85,200.74,92.81,202,92.77,203.26z"/>
	<path class="st11" d="M225.72,337.81c-1.51-2.96-3.03-5.92-4.54-8.88c-0.41,0.17-0.82,0.34-1.24,0.51c0.9-2.4,1.81-4.8,2.71-7.2
		c0.06-1.08,0.13-2.16,0.19-3.25c5.37,6.44,7.85,14.14,9.57,22.16C230.18,340.05,227.95,338.93,225.72,337.81z"/>
	<path class="st3" d="M492.18,498.21c-1.6-0.34-3.2-0.67-4.8-1.01c-0.14-7.73,2.84-14.41,7.25-22.08
		C495.98,483.99,494.32,491.12,492.18,498.21z"/>
	<path class="st7" d="M360.21,86.35c1.58-2.68,3.16-5.36,4.74-8.04c1.07-1.12,2.15-2.24,3.22-3.36c0.73,3.17,1.46,6.33,2.19,9.49
		c-1,2.59-1.99,5.17-2.99,7.76c-1.86,0-3.73,0.01-5.59,0.01c-1.07-0.53-2.15-1.06-3.14-1.55C359.21,89.09,359.71,87.72,360.21,86.35
		z"/>
	<path class="st20" d="M137.73,327.16c1.92,1.15,3.83,2.3,5.75,3.45c-4.47,6.37-13.48,5.38-19.65-3.37c5.29,0,9.65,0,14.01,0
		C137.83,327.23,137.73,327.16,137.73,327.16z"/>
	<path class="st25" d="M400.42,124.17c1.71-1.01,3.43-2.01,5.14-3.02c5.98-0.25,3.9,4.7,4.91,7.65c-1.38,2.5-2.76,4.99-4.15,7.49
		C402.02,133.4,399.64,129.56,400.42,124.17z"/>
	<path class="st20" d="M195.34,347.5c-6.68,6.02-13.28,5.93-19.33,0.02C182.35,343.37,188.57,345.22,195.34,347.5z"/>
	<path class="st23" d="M543.36,140.16c8.81,1.65,15.3,4.54,19.87,12.04C554.22,152.06,548.53,147.83,543.36,140.16z"/>
	<path class="st22" d="M390.36,102.19c-2.26,2.46-4.51,4.92-6.77,7.38c-0.08-1.84-0.16-3.69-0.24-5.54
		c0.44-0.34,0.87-0.69,1.31-1.03c-4.05-2.14-8.09-4.29-12.14-6.43c1.89-0.83,3.77-1.65,5.66-2.48
		C383.14,95.43,388.9,95.58,390.36,102.19z"/>
	<path class="st8" d="M190.94,336.86c-0.54-2.54-1.09-5.08-1.63-7.6c0.62-0.37,1.08-0.89,1.44-0.82c5.73,0.97,11.49,1.8,17.12,3.2
		c1.17,0.29,1.8,2.77,2.68,4.24c-0.15-0.3-0.29-0.59-0.44-0.88c-4.15,2.92-7.22,0.04-10.93-1.84c0.34,1.25,0.67,2.49,1.15,4.25
		c-1.78-0.75-3.2-1.4-4.67-1.95C193.76,334.75,191.64,333.48,190.94,336.86z"/>
	<path class="st20" d="M124.71,337.49c-5.31,5.62-10.53,9.44-18.23,7.59C109.69,338.29,114.87,336.01,124.71,337.49z"/>
	<path class="st10" d="M372.35,494.25c-2.26-0.65-4.51-1.31-6.77-1.96c2.73-8.19,8.88-13.35,15.18-18.37
		c0.34,0.27,0.68,0.54,1.02,0.81c-4.15,6.11-8.29,12.23-12.65,18.66C370.28,493.69,371.32,493.97,372.35,494.25z"/>
	<path class="st12" d="M485.4,88.41c0.18-8.34,5.43-12.63,12.72-10.8C497.65,83.5,493.27,87.31,485.4,88.41z"/>
	<path class="st23" d="M533.27,104.92c8.14,0.21,12.53,3.12,16.77,11.13C543.3,116.75,535.73,111.72,533.27,104.92z"/>
	<path class="st26" d="M529.63,127.69c-5.82,3.45-11.24,6.67-17.48,10.38c0.32-5.98,2.89-9.28,6.73-11.48
		C522.26,124.66,525.8,124.73,529.63,127.69z"/>
	<path class="st16" d="M326.57,383.23c2.31-1.42,4.71-2.71,6.89-4.3c2.21-1.61,4.19-3.53,6.28-5.31c0.4,0.37,0.79,0.75,1.19,1.12
		c-4.19,4.43-8.39,8.87-13.22,13.98c7.83,1.43,13.38-1.62,19.54-5.57c-3.12,7.15-12.94,9.42-21.7,6.12
		c0.86-1.42,1.72-2.84,2.61-4.31C327.7,384.47,327.14,383.85,326.57,383.23z"/>
	<path class="st24" d="M92.77,203.26c0.04-1.26,0.08-2.52,0.12-3.78c0.3-0.41,0.6-0.82,0.9-1.23c2.41,1.65,4.83,3.3,7.24,4.95
		c0.9,1.16,1.8,2.32,2.7,3.47c-1.31,1.88-2.62,3.77-3.93,5.66C97.45,209.31,95.11,206.28,92.77,203.26z"/>
	<path class="st14" d="M421.47,166.29c-3.05-0.34-6.11-0.67-9.16-1.01c1.38-4.05,2.75-8.11,4.13-12.16
		c0.98,0.01,1.95,0.03,2.93,0.04c1.31,3.6,2.63,7.19,3.94,10.79C422.7,164.73,422.09,165.51,421.47,166.29z"/>
	<path class="st7" d="M251.67,51.18c-1.39,2.17-2.47,4.66-4.25,6.45c-2.82,2.83-5.57,1.96-8.76-2.26c1.67-1.77,3.11-3.87,5.07-5.23
		C246.45,48.26,249.6,46.57,251.67,51.18z"/>
	<path class="st18" d="M490.23,335.21c2.58,2.09,4.9,4.97,8.85,2.96c3.2,0.68,5.24,2.36,5.14,5.91c-0.8,1.27-1.6,2.55-2.4,3.82
		C497.19,347.44,491.57,341.29,490.23,335.21z"/>
	<path class="st12" d="M201.59,385.76c4.8,8.12,4.81,12.49,0.29,17.16C197.35,398.46,197.18,393.19,201.59,385.76z"/>
	<path class="st17" d="M99.81,270.57c2.42,0.32,5.08,0.11,7.18,1.11c1.93,0.92,3.25,3.13,4.83,4.77c-2.03,0.85-4.02,1.85-6.11,2.48
		c-0.82,0.25-1.89-0.34-2.85-0.54c-1.63-2.58-3.26-5.15-4.89-7.73C98.58,270.63,99.2,270.6,99.81,270.57z"/>
	<path class="st17" d="M440.69,47.69c-3.59-7.43-3.09-11.72,1.95-16.52C446.65,35.89,445.92,42.12,440.69,47.69z"/>
	<path class="st12" d="M119.16,353.03c2.1-8.03,6.95-11.55,16-10.03c-5.6,4.26-10.22,7.78-14.85,11.3
		C119.92,353.88,119.54,353.46,119.16,353.03z"/>
	<path class="st16" d="M457.47,295.67c13.08,0.9,25.27,1.75,37.8,2.61C492.5,300.61,462.38,298.66,457.47,295.67z"/>
	<path class="st19" d="M320.57,44.24c-2.31,1.19-4.63,2.37-7.16,3.67c-1.48-7.17,1.74-13.15,7.25-14.94
		C320.62,36.73,320.6,40.48,320.57,44.24z"/>
	<path class="st12" d="M533.53,141.51c-4.79,5.99-11.17,5.71-15.72-0.72C523.27,138.35,528.34,138.5,533.53,141.51z"/>
	<path class="st20" d="M184.15,356.19c-6.94,4-12.79,5.15-19.77,1.49C170.74,354.09,176.68,354.06,184.15,356.19z"/>
	<path class="st23" d="M460.44,86.26c-0.07,6.99-3.65,11.04-10.18,11.9C450.38,91.43,453.46,87.72,460.44,86.26z"/>
	<path class="st17" d="M434.39,92.3c-5.75-4.62-6.08-10.53-4.93-16.98C434.36,78.54,436.27,84.97,434.39,92.3z"/>
	<path class="st20" d="M595.43,144.09c-7.09,2.34-11.34-1.85-16.28-5.29C585.9,136.36,590.51,137.86,595.43,144.09z"/>
	<path class="st26" d="M472.76,157.06c-6.34,2.36-10.53,1.19-13.84-3.86C465.05,150.19,469.59,151.46,472.76,157.06z"/>
	<path class="st14" d="M442.51,153.34c3.08-6.89,8.64-9.62,15.86-7.7C454.08,150.66,449.21,153.39,442.51,153.34z"/>
	<path class="st22" d="M423.32,163.95c-1.31-3.6-2.63-7.19-3.94-10.79c3.23-1.39,7.03-2.16,8.59,1.51
		C429.67,158.71,426.44,161.61,423.32,163.95z"/>
	<path class="st14" d="M115.31,60.83c-2.25-7.6-1.42-10.86,3.71-14.59C122.38,51.7,120.81,57.87,115.31,60.83z"/>
	<path class="st17" d="M126.5,367.47c1.2,7.29-0.39,12.13-5.12,15.63C118.45,378.67,120.74,371.65,126.5,367.47z"/>
	<path class="st23" d="M180.06,383.6c2.83-5.77,6.44-10.63,14.03-12.23C191.22,378.4,186.34,381.78,180.06,383.6z"/>
	<path class="st24" d="M390.36,102.19c-1.47-6.61-7.22-6.76-12.17-8.1c2.03-1.37,4.06-2.74,6.1-4.11c3.02,1.09,6.04,2.18,9.06,3.27
		c-0.05,1.08-0.11,2.16-0.16,3.24C392.24,98.39,391.3,100.29,390.36,102.19z"/>
	<path class="st20" d="M548.47,161.59c6.8-0.09,9.62,1.97,11.86,8.7C555.1,171.52,550.87,168.42,548.47,161.59z"/>
	<path class="st17" d="M105.49,59.82c0.16,7.21-1.23,12.51-6.24,17.21C97.85,69.98,100.08,65.01,105.49,59.82z"/>
	<path class="st20" d="M583.1,194.24c7.48,0.72,11.37,4.37,14.14,10.95C590.41,203.9,586.49,200.26,583.1,194.24z"/>
	<path class="st12" d="M579.17,121.12c4.25-5.12,8.17-8.98,14.99-8.06C590.88,118.56,587.42,120.48,579.17,121.12z"/>
	<path class="st12" d="M516.65,97.67c3.52-6.74,7.29-8.43,14.21-6.72C527.7,96.43,522.35,96.33,516.65,97.67z"/>
	<path class="st23" d="M585.97,184.76c-3.8-3.35-7.61-6.69-11.41-10.04c6.12-0.74,10.41,2.81,12.57,8.77
		C586.74,183.91,586.35,184.34,585.97,184.76z"/>
	<path class="st17" d="M425.99,110.84c3.51,3.99,7.01,7.98,10.52,11.97c-0.54,0.48-1.08,0.95-1.62,1.43
		c-5.56-2.14-8.29-6.82-10.22-12.19C425.1,111.64,425.55,111.24,425.99,110.84z"/>
	<path class="st27" d="M320.57,44.24c0.03-3.76,0.06-7.51,0.09-11.27c4.99-1.07,5.84-0.06,5.91,7.01c-1.33,1.45-2.65,2.9-3.98,4.35
		c-0.22-0.14-0.43-0.29-0.65-0.43c0.03,0.26,0.06,0.52,0.09,0.78c0,0,0,0.09,0,0.09C321.54,44.59,321.05,44.41,320.57,44.24z"/>
	<path class="st16" d="M296.46,328.25c-1.56,0.63-3.13,1.26-5.32,2.15c1.66-5.89,11.74-11.52,20.13-11.64
		c-1.14,1.63-1.94,2.77-2.73,3.92c-0.29,0.19-0.58,0.38-0.87,0.57c0,0-0.08,0.06-0.08,0.06c-6.1-3.48-9.15,2.41-13.5,4.63
		C294.87,328.04,295.66,328.15,296.46,328.25z"/>
	<path class="st20" d="M570.78,206.91c6.07,1.95,8.43,5.77,8.95,12.04C573.88,216.85,571.84,212.78,570.78,206.91z"/>
	<path class="st17" d="M253.19,38.94c6.47,0.55,8.72,3.17,7.85,9.2C256.32,46.8,253.46,44.12,253.19,38.94z"/>
	<path class="st3" d="M306.55,466.18c0.19-4.19-3.65-2.67-5.53-3.93c0.21-0.34,0.41-0.68,0.62-1.01c0.13-0.08,0.36-0.16,0.36-0.24
		c-0.01-0.25-0.1-0.49-0.16-0.74c1.07-3.37,2.15-6.74,3.22-10.11c0.5,0.06,1,0.12,1.5,0.17
		C306.55,455.61,306.55,460.9,306.55,466.18z"/>
	<path class="st20" d="M253.7,254.18c-3.38-0.67-6.76-1.35-11.29-2.26c3.9-4.33,7.5-4.7,11.27-4.59
		C253.68,249.62,253.69,251.9,253.7,254.18z"/>
	<path class="st17" d="M104.17,106.41c2.97-4.32,7.03-6.72,12.33-6.91c0.3,0.53,0.6,1.06,0.9,1.6c-4.1,2.32-8.19,4.65-12.29,6.97
		C104.8,107.52,104.48,106.97,104.17,106.41z"/>
	<path class="st21" d="M484.33,265.03c-0.01-0.47-0.02-0.95-0.02-1.42c8.04,0.41,16.09,0.81,24.13,1.22
		c-0.02,0.56-0.05,1.13-0.07,1.69C500.36,266.02,492.34,265.52,484.33,265.03z"/>
	<path class="st16" d="M317.38,287.83c-4.16,2.75-7.16,4.73-11.17,7.39c3.34,0,5.4,0,7.47,0c0.04,0.17,0.08,0.33,0.12,0.5
		c-2.93,0.64-5.87,1.28-9.1,1.98C305.31,292.29,310.11,288.45,317.38,287.83z"/>
	<path class="st10" d="M451.43,155.18c-0.25,7.57-2.89,9.02-10.03,6.25C445.22,159.05,448.32,157.11,451.43,155.18z"/>
	<path class="st19" d="M393.34,93.25c-3.02-1.09-6.04-2.18-9.06-3.27c3.07-1.29,6.15-2.58,10.74-4.51
		C394.24,89.09,393.79,91.17,393.34,93.25z"/>
	<path class="st16" d="M308.57,354.2c2.12-1.51,4.13-3.22,6.4-4.45c1.6-0.87,3.56-1.07,5.73-1.67c-1.57,5.23-9.38,8.76-12.12,6.14
		L308.57,354.2z"/>
	<path class="st23" d="M163.15,382.83c-1.34,6.82-3.42,8.78-9.36,9.3C154.54,386.84,158.69,385.25,163.15,382.83z"/>
	<path class="st20" d="M150.43,336.19c0.94,6.23,0.05,7.63-5.91,9.69C143.88,340.93,145.63,337.94,150.43,336.19z"/>
	<path class="st16" d="M306.62,328.18c0.31-0.65,0.63-1.29,0.94-1.94c2.65-0.58,5.29-1.16,7.83-1.72c-2.64,7.92,5.87,3.66,7.68,7.8
		c-2.72-0.68-6.18-0.56-7.97-2.23C312.32,327.5,309.61,328,306.62,328.18z"/>
	<path class="st16" d="M504.22,344.07c0.1-3.55-1.94-5.23-5.14-5.91c0.33-1.96,0.66-3.91,0.99-5.87c3.18,2.8,7.3,5.03,6.2,10.39
		C505.59,343.15,504.9,343.61,504.22,344.07z"/>
	<path class="st22" d="M106.89,189.26c-1.95,0.01-3.91,0.01-5.86,0.02c-0.18-2.36-0.36-4.72-0.54-7.08c0,0,0.28-0.38,0.29-0.38
		c2.44,1.46,4.88,2.91,7.32,4.37C107.7,187.21,107.29,188.24,106.89,189.26z"/>
	<path class="st27" d="M214.6,393.76c0-4.26,0-7.61,0-11.7C219.58,386.84,219.8,390.81,214.6,393.76z"/>
	<path class="st22" d="M210.56,48.33c6.03,2.98,6.57,5.44,1.71,9.91c-1.24-1.4-2.49-2.83-3.74-4.25
		C209.2,52.1,209.88,50.22,210.56,48.33z"/>
	<path class="st16" d="M319.17,291.58c3.42-2.46,6.4-4.6,9.38-6.73c0.38,0.45,0.76,0.9,1.15,1.35c-1.76,2.4-3.51,4.8-5.62,7.68
		C323.33,293.53,321.63,292.73,319.17,291.58z"/>
	<path class="st23" d="M592.97,218.82c-3.69-2.12-7.39-4.25-11.08-6.37c0.37-0.66,0.74-1.32,1.11-1.98
		c3.83,2.08,7.67,4.15,11.5,6.23C593.98,217.41,593.47,218.12,592.97,218.82z"/>
	<path class="st26" d="M154.82,460.16c-0.97,1.02-1.88,2.1-2.94,3.02c-0.47,0.41-1.23,0.51-1.85,0.75c0.5-4.34,0.99-8.68,1.48-13.03
		c0.2-0.11,0.4-0.21,0.59-0.32C153.01,453.77,153.91,456.96,154.82,460.16z"/>
	<path class="st1" d="M504.22,344.07c0.69-0.46,1.37-0.92,2.06-1.38c1.03,0.87,2.06,1.75,3.08,2.62c-1.03,1.91-2.07,3.81-3.1,5.72
		c-1.48-1.04-2.96-2.08-4.44-3.13C502.62,346.62,503.42,345.35,504.22,344.07z"/>
	<path class="st14" d="M128.68,96.04c-0.95,3.05-1.91,6.11-2.86,9.16c-1.33,0-2.67,0.01-4,0.01
		C122.42,100.88,123.99,97.29,128.68,96.04z"/>
	<path class="st20" d="M523.03,165.96c-2.49-2-4.97-4.01-7.46-6.01c0.43-0.55,0.85-1.1,1.28-1.65c3.83,0.22,6.28,2.33,7.44,6.2
		C523.87,164.99,523.45,165.48,523.03,165.96z"/>
	<path class="st7" d="M137.67,87.27c-2.6,2.1-5.21,4.19-7.81,6.29c-0.92-0.24-1.84-0.49-2.96-0.79
		C129.38,88.35,132.83,86.44,137.67,87.27z"/>
	<path class="st16" d="M348.58,294.6c-0.02,0.51-0.03,1.01-0.05,1.52c-2.58-0.83-5.14-1.76-7.75-2.47
		c-1.69-0.46-3.46-0.61-5.94-1.02c2.39-1.11,4.26-1.97,6.14-2.83c-0.14,0.51-0.28,1.01-0.42,1.52
		C343.24,292.41,345.91,293.51,348.58,294.6z"/>
	<path class="st24" d="M119.75,304.59c2.58-0.11,5.17-0.21,7.75-0.32c-1.01,3.2-2.03,6.41-3.04,9.6
		C122.89,310.78,121.32,307.68,119.75,304.59z"/>
	<path class="st12" d="M334.95,263.27c0.92-0.05,1.83-0.1,2.75-0.15c4.47-0.04,8.93-0.07,13.4-0.11c0.99-0.06,1.97-0.12,2.96-0.19
		c0.24,0.43,0.49,0.86,0.73,1.29C348.18,263.83,341.57,263.55,334.95,263.27z"/>
	<path class="st16" d="M319.53,390.18c-0.24,1.15-0.49,2.31-0.8,3.81c1.5-0.68,2.68-1.22,3.87-1.76c-1.2,1.2-2.34,2.46-3.66,3.51
		c-0.19,0.15-1.79-1-1.74-1.11C317.87,393.1,318.72,391.65,319.53,390.18z"/>
	<path class="st16" d="M402.41,294.47c-5.32,0.01-10.64,0.02-15.96,0.02C391.77,294.48,397.09,294.48,402.41,294.47z"/>
	<path class="st3" d="M505.24,499.18c-4.31-0.29-8.62-0.58-12.93-0.87C496.62,498.6,500.93,498.89,505.24,499.18z"/>
	<path class="st5" d="M542.34,389.24c0.3,1.93,0.59,3.85,0.89,5.77C542.93,393.09,542.64,391.16,542.34,389.24z"/>
	<path class="st16" d="M322.55,392.28c0.68-0.68,1.36-1.36,2.04-2.04C323.91,390.91,323.23,391.59,322.55,392.28z"/>
	<path class="st16" d="M323.58,386.04c-0.69,0.72-1.39,1.44-2.08,2.17C322.19,387.49,322.89,386.76,323.58,386.04z"/>
	<path class="st16" d="M354.06,262.82c-0.99,0.06-1.97,0.12-2.96,0.19C352.09,262.94,353.08,262.88,354.06,262.82z"/>
	<path class="st12" d="M531.94,333.43c0.05,0.7,0.1,1.39,0.16,2.09C532.05,334.83,532,334.13,531.94,333.43z"/>
	<path class="st12" d="M359.55,263.14c-0.64,0.13-1.29,0.26-1.93,0.39c0.04-0.36,0.07-0.72,0.11-1.09c0.58,0.26,1.16,0.52,1.74,0.79
		C359.46,263.23,359.55,263.14,359.55,263.14z"/>
	<path class="st8" d="M210.49,338.46c0.08,0.57,0.16,1.14,0.24,1.7C210.65,339.6,210.57,339.03,210.49,338.46z"/>
	<path class="st27" d="M307.66,323.24c0.29-0.19,0.58-0.38,0.87-0.57C308.24,322.87,307.95,323.05,307.66,323.24z"/>
	<path class="st16" d="M321.52,388.18c-0.34,0.34-0.67,0.67-1.01,1.01C320.85,388.85,321.18,388.52,321.52,388.18z"/>
	<path class="st16" d="M320.51,389.19c-0.34,0.34-0.67,0.68-1.01,1.02C319.83,389.87,320.17,389.53,320.51,389.19z"/>
	<path class="st16" d="M324.55,390.27c0.35-0.35,0.69-0.69,1.04-1.04C325.24,389.58,324.89,389.93,324.55,390.27z"/>
	<path class="st12" d="M564.09,310.22c-0.27-0.39-0.54-0.79-0.81-1.18C563.55,309.43,563.82,309.83,564.09,310.22z"/>
	<path class="st7" d="M347.5,70.32c-0.32,0.04-0.64,0.08-0.96,0.13C346.85,70.41,347.18,70.36,347.5,70.32z"/>
	<path class="st19" d="M149.15,89.03c-0.1,0.39-0.2,0.78-0.29,1.17C148.95,89.81,149.05,89.42,149.15,89.03z"/>
	<path class="st22" d="M370.43,96.58c-0.32-0.09-0.65-0.18-0.97-0.27C369.79,96.4,370.11,96.49,370.43,96.58z"/>
	<path class="st7" d="M344.33,70.94l-0.37,0.14c0,0-0.38-0.12-0.38-0.12C343.82,70.7,344.07,70.7,344.33,70.94z"/>
	<path class="st16" d="M438.6,295.09c-0.51-0.01-1.01-0.02-1.52-0.03C437.58,295.07,438.09,295.08,438.6,295.09z"/>
	<path class="st10" d="M218.69,487.37c-0.32,0.01-0.65,0.02-0.97,0.02C218.04,487.38,218.37,487.38,218.69,487.37z"/>
	<path class="st14" d="M129.73,94.92c-0.32,0.43-0.64,0.85-0.97,1.28C129.09,95.77,129.41,95.34,129.73,94.92z"/>
	<path class="st18" d="M490.2,334.42c0.25,0.27,0.27,0.56,0.05,0.86c-0.13-0.2-0.27-0.39-0.37-0.6
		C489.87,334.65,490.09,334.51,490.2,334.42z"/>
	<path class="st16" d="M500.15,332.39c-0.32-0.37-0.65-0.74-0.97-1.12C499.5,331.64,499.83,332.01,500.15,332.39z"/>
	<path class="st26" d="M154.8,461.04c-0.14-0.26-0.13-0.51,0.03-0.75c0.07,0.18,0.16,0.36,0.2,0.55
		C155.04,460.89,154.88,460.97,154.8,461.04z"/>
	<path class="st10" d="M301.83,460.26c0.06,0.25,0.16,0.49,0.16,0.74c0,0.07-0.23,0.16-0.36,0.24
		C301.7,460.91,301.77,460.59,301.83,460.26z"/>
	<path class="st28" d="M559.14,504.44c0.16-0.38,0.31-0.76,0.47-1.14c0.82,0.32,1.65,0.63,2.47,0.95c0,0,0.06,0.12,0.06,0.12
		c1.39,0.26,2.79,0.51,4.18,0.77c0.57-0.06,1.15-0.12,1.72-0.18c0.42,1.36,0.85,2.73,1.27,4.09c0.05,2.54-0.89,4.17-3.73,4.01
		c-6.4-0.35-12.82-0.56-19.2-1.18c-1.21-0.12-2.25-1.9-3.38-2.91c2.4-0.94,4.81-1.86,7.2-2.81c1.67-0.67,3.33-1.39,4.99-2.09
		c0.66,0.11,1.33,0.23,1.99,0.34C557.84,504.42,558.49,504.43,559.14,504.44z"/>
	<path class="st2" d="M246.72,495.23c-3.59-7.97-5.49-16.29-4.97-25.05c0.17-2.86,0.89-5.68,2.22-8.57c4.98,9.02,6.16,19,8.77,28.55
		c0.55,2.34,1.11,4.69,1.71,7.26C251.07,499.49,249.12,496.45,246.72,495.23z"/>
	<path class="st10" d="M185.25,495.1c0.46-1.65,0.93-3.3,1.39-4.94C186.18,491.8,185.72,493.45,185.25,495.1z"/>
	<path class="st10" d="M222.89,487.82c0.19-0.25,0.41-0.3,0.68-0.14c0,0-0.3,0.31-0.3,0.31L222.89,487.82z"/>
	<path class="st11" d="M168.03,296.36c-3.72,0.26-5.77-1.18-5.29-5.2c2.87-3.27,4.98-6.76,3.53-11.56
		c-1.28,0.26-2.37,0.48-3.47,0.71c-9.17-12.09-6.2-24.07,0.33-36.02c1.27-2.33,2.44-4.71,3.66-7.07c1.92-0.05,3.84-0.09,5.76-0.14
		c-1.28-2.24-2.5-4.51-3.89-6.67c-0.22-0.34-1.24-0.16-1.89-0.22c1.5-1.22,2.84-2.75,4.52-3.59c2.74-1.37,5.69-2.29,8.56-3.4
		c2.31,1.76,4.63,3.51,6.95,5.27c0.33,3.67-0.44,6.38-5.02,5.77c-0.33,1.16-1.19,2.51-0.87,3.45c0.56,1.65,1.85,3.05,2.84,4.56
		c-5-0.37-6.62,2.65-6.96,6.96c-0.94,2.6-2.2,5.15-2.66,7.84c-0.22,1.27,1.08,2.8,1.68,4.22c-2.9,5.06-5.8,10.12-8.68,15.15
		c0.24,0.2,0.43,0.43,0.47,0.4c5.13-3.01,10.03-3.96,14.31,1.45c6.21,5.54,12.43,11.08,18.49,16.49c-4.39,2.96-8.62,5.8-12.85,8.64
		c-3.2-1.1-6.41-2.19-9.61-3.29C176.62,293.56,171.56,296.99,168.03,296.36z"/>
	<path class="st26" d="M177.92,300.1c3.21,1.1,6.41,2.19,9.61,3.29c3.05,0.26,6.1,0.52,9.15,0.78c0.38-0.11,0.75-0.22,1.13-0.34
		c0.63-0.12,1.26-0.25,1.88-0.37c0.29,0.26,0.59,0.52,0.88,0.78c-2.26,2.72-4.52,5.43-6.78,8.15c-8.17,0.82-13.23-3.57-17-10.14
		C177.17,301.53,177.54,300.81,177.92,300.1z"/>
	<path class="st6" d="M226.54,302.25c3.31-0.64,6.62-1.29,9.94-1.93c0,3.95,0,7.9,0,13.64C232.61,309.4,229.57,305.82,226.54,302.25
		z"/>
	<path class="st6" d="M197.81,303.83c-0.38,0.11-0.75,0.22-1.13,0.34C197.06,304.06,197.43,303.94,197.81,303.83z"/>
	<path class="st26" d="M186.79,228.46c-2.32-1.76-4.63-3.51-6.95-5.27c-0.76-2.41-1.51-4.82-2.27-7.23
		c0.39-0.29,0.79-0.59,1.18-0.88c2.44,1.77,4.87,3.54,7.29,5.3c1.46-3.61,2.95-7.29,4.83-11.91c1.31,2.31,2.01,3.54,2.7,4.77
		c0.12,1.32,0.24,2.63,0.25,2.82c3.73,3.09,6.78,5.63,9.84,8.16c0.27,1.09,0.54,2.17,1.19,4.77c-4.39-2.4-7.73-4.21-10.71-5.84
		C191.82,224.83,189.31,226.65,186.79,228.46z"/>
	<path class="st5" d="M244.92,216.24c-0.83,9.02-5.25,13.29-13.53,13.42C232.36,221.6,236.76,217.13,244.92,216.24z"/>
	<path class="st3" d="M175.8,261.25c-0.61-1.41-1.91-2.95-1.68-4.22c0.47-2.69,1.73-5.23,2.66-7.84c2.65,1.06,7.11,1.61,7.59,3.28
		c1.09,3.87-2.16,6.59-5.67,8.25C177.84,261.13,176.77,261.09,175.8,261.25z"/>
	<path class="st27" d="M216.86,213.83c-0.37-1.27-1.42-3.09-0.94-3.7c0.73-0.92,2.71-1.63,3.81-1.3c2.88,0.87,5.58,2.37,8.35,3.61
		c-0.28,3.89-3.41,2.97-5.56,2.95C220.63,215.38,218.75,214.39,216.86,213.83z"/>
	<path class="st6" d="M201.37,261.02c3.58,0.81,6.98,1.26,10.09,2.47c1.02,0.4,2.14,3.16,1.68,4.11c-0.54,1.14-2.96,2.36-4.15,2.03
		C205.08,268.55,202.01,266.18,201.37,261.02z"/>
	<path class="st20" d="M250.78,240.47c-3.46,1.52-6.86,3.24-10.44,4.41c-0.88,0.29-2.35-1.25-3.54-1.95
		c0.76-0.97,1.34-2.52,2.3-2.79c3.51-1.02,7.14-1.62,10.73-2.38C250.14,238.66,250.46,239.57,250.78,240.47z"/>
	<path class="st15" d="M183.74,242.24c-0.98-1.51-2.27-2.91-2.84-4.56c-0.32-0.94,0.54-2.29,0.87-3.45c2.85,2.23,5.7,4.45,9.16,7.15
		C190.49,243.75,189.3,244.14,183.74,242.24z"/>
	<path class="st20" d="M232.8,260.74c-3.92-0.29-7.84-0.59-11.75-0.88c0.07-0.88,0.14-1.76,0.22-2.63c3.87,0.4,7.74,0.81,11.6,1.21
		C232.84,259.21,232.82,259.97,232.8,260.74z"/>
	<path class="st15" d="M203.2,242.34c0.3,2.26,0.61,4.51,0.91,6.77c-0.96,0.04-2.33,0.51-2.81,0.05c-2.19-2.1-2.3-4.41-0.15-6.58
		C201.84,242.5,202.52,242.42,203.2,242.34z"/>
	<path class="st6" d="M303.56,127.18c1.13,1.01,2.32,1.96,3.38,3.03c1.28,1.31,2.46,2.73,3.67,4.1c-0.8,4.2,0.72,7.38,4.37,9.49
		c2.59,1.49,5.21,1.77,7.56-0.58c5.54-0.06,3.6,4.14,3.98,7.01c-2.67,1.32-5.34,2.64-8.01,3.96c0.16,0.62,0.32,1.23,0.48,1.85
		c1.88-0.31,4.04-0.14,5.58-1.04c2.82-1.65,5.28-3.93,7.89-5.95c5.75-2.03,6.09-1.84,8.12,4.32c-1,3.95-2,7.91-3.01,11.86
		c-6.41-4.41-14.71-4.64-20.99-8.11c-9.79-5.39-19.92-4.49-29.97-5.84c-6.98-0.94-14.03-1.39-21.05-2.06
		c-0.77-0.4-1.69-1.3-2.3-1.13c-4.4,1.24-10.45,7.65-9.38,13c-4.63,0.67-9.72,0.33-13.8,2.2c-8.5,3.89-16.6,8.73-24.56,13.67
		c-2.18,1.35-3.2,4.51-4.9,6.72c-1.27,1.65-2.77,3.1-4.17,4.64c-8.53-2.79-17.54-0.02-20.47,7.48c-3.86,2.15-3.86,2.15-10.23-4.51
		c-3.5,3.2-3.01,7.12-1.41,10.62c3.3,7.22,2.56,9.07-5.4,10.73c-0.79,0.16-1.61,0.17-2.41,0.25c3.59-4.41,4.13-9.3,2-14.45
		c-0.29-0.69-1.81-0.86-2.76-1.27c-5.11-2.68-3.99-6.74-2.47-10.94c0.6-1.65,1.01-3.38,1.51-5.07c3.33-1.31,6.67-2.62,10-3.93
		c5.98-2.01,11.96-4.02,17.94-6.03c3.91,3.71,8.2,5.93,13.98,3.83c-0.86-5.67-4.69-8.26-9.17-10.28c-0.33-4.58,0.54-8.37,5.87-9.51
		c0.54-0.12,0.88-1.2,1.31-1.84c0.6-1.05,1.2-2.1,1.8-3.15c6.49-3.53,12.81-7.42,19.52-10.45c3.79-1.72,4.28-3.53,2.53-6.81
		c-1.69-3.18-0.44-4.38,2.91-4.89c1.51-0.23,2.81-1.92,4.2-2.94c1.5-0.72,3.01-1.43,4.51-2.15c8.54,1.7,17.08,3.4,25.62,5.11
		c4.89,0.02,9.78,0.04,14.67,0.06c4.02,0.69,8.03,1.38,12.05,2.08C296.23,129.22,299.89,128.2,303.56,127.18z"/>
	<path class="st6" d="M124.34,282.2c-0.79-0.31-1.58-0.61-2.38-0.92c-4.91-1.69-5.95-5.15-4.71-9.86c0.71-2.7,1.08-5.48,1.6-8.23
		c1.88-0.15,3.76-0.3,6.69-0.52c-1.61-3.53-2.91-6.39-4.22-9.25c4.82-3.53,6.91-8.51,7.5-14.28c1.77-1.41,3.53-2.82,5.85-4.66
		c-2.26-1.08-3.54-1.69-4.82-2.3c1.44-4.85,2.31-9.98,4.48-14.47c2.18-4.51,7.88-4.81,9.63-1.18c2.62,0.61,5.24,1.21,7.86,1.82
		c-0.67,4.19-1.33,8.38-2,12.57c-5.19,0.45-10.3,1.06-13.74,6.54c1.62,0.39,2.68,0.65,3.75,0.91c0.34,5.87,0.68,11.73,1.02,17.6
		c-1.68,0.44-3.36,0.88-5.04,1.33c-7.31,3.9-6.8,12.63,1.07,18.25c-0.64,1.12-1.28,2.24-1.93,3.36c-0.75,0.46-1.51,0.92-2.26,1.38
		c-1.55,0.35-3.09,0.71-4.64,1.06C126.82,281.64,125.58,281.92,124.34,282.2z"/>
	<path class="st12" d="M185.98,195.8c2.92-7.51,11.94-10.27,20.47-7.48C204.03,196.51,195.78,199.52,185.98,195.8z"/>
	<path class="st12" d="M337.57,165.23c1-3.95,2-7.91,3.01-11.86c1.19-1.11,2.28-2.4,3.64-3.22c0.45-0.27,1.62,0.67,2.47,1.05
		c-0.46,5.66-0.92,11.32-1.37,16.97c-1.08,0.98-2.15,1.96-3.74,3.41C340.12,169.27,338.84,167.25,337.57,165.23z"/>
	<path class="st21" d="M135.81,257.3c1.68-0.44,3.36-0.88,5.04-1.33c3.13,3.07,6.26,6.14,9.39,9.21c-2.13,1.66-4.27,3.32-6.4,4.98
		c-2-1.3-4.01-2.59-6.01-3.89C137.17,263.29,136.49,260.29,135.81,257.3z"/>
	<path class="st22" d="M151.83,218.35c-2.62-0.61-5.24-1.21-7.86-1.82c4.72-4.9,9.41-9.83,16.83-10.3
		c-0.05,2.62-0.11,5.24-0.16,7.86c-0.58,0.39-1.16,0.79-1.73,1.18c0,0-0.08,0.05-0.08,0.05c-0.38,0.29-0.76,0.58-1.14,0.87
		C155.73,216.91,153.78,217.63,151.83,218.35z"/>
	<path class="st12" d="M160.63,214.1c0.05-2.62,0.11-5.24,0.16-7.86c1.66-3.02,3.31-6.04,4.97-9.06c0.95,0.41,2.48,0.58,2.76,1.27
		c2.13,5.14,1.59,10.04-2,14.45c0,0,0.07,0.11,0.07,0.11c-0.94,0.72-1.89,1.44-2.84,2.17c-0.84-0.03-1.68-0.06-2.53-0.09
		C161.03,214.76,160.83,214.43,160.63,214.1z"/>
	<path class="st20" d="M162.8,280.3c1.09-0.22,2.18-0.44,3.47-0.71c1.45,4.8-0.66,8.29-3.53,11.56c-0.16,0.03-0.33,0.07-0.49,0.09
		c-2.57,0.34-5.15,0.67-7.72,1.01c0.78-2.66,1.55-5.33,2.33-7.99C158.84,282.94,160.82,281.62,162.8,280.3z"/>
	<path class="st26" d="M253.88,161.09c-1.06-5.35,4.99-11.76,9.38-13c0.61-0.17,1.53,0.73,2.3,1.13
		C263.4,157.74,260.33,160.86,253.88,161.09z"/>
	<path class="st22" d="M222.64,181.88c1.61,0.84,3.22,1.68,4.83,2.52c-1.11,1.54-1.91,3.88-3.38,4.44
		c-2.94,1.12-6.26,1.25-9.75,1.85c0.81-5.08,3.36-7.54,7.38-8.66c0,0,0.48,0.03,0.48,0.03L222.64,181.88z"/>
	<path class="st26" d="M294.55,167.78c-5.08-1.87-10.16-3.74-15.77-5.8C283.2,157.11,291.29,160.08,294.55,167.78z"/>
	<path class="st12" d="M139.84,238.37c-1.07-0.26-2.13-0.52-3.75-0.91c3.44-5.48,8.55-6.1,13.74-6.54c0.26,0.97,0.88,2.72,0.72,2.8
		C147.03,235.38,143.42,236.86,139.84,238.37z"/>
	<path class="st2" d="M166.77,230.19c0.65,0.06,1.67-0.12,1.89,0.22c1.4,2.16,2.62,4.43,3.89,6.67c-1.92,0.05-3.84,0.09-5.76,0.14
		c-0.71-1.05-1.44-2.08-2.13-3.14C162.96,231.48,163.82,230.26,166.77,230.19z"/>
	<path class="st14" d="M143.85,270.17c2.13-1.66,4.26-3.32,6.4-4.98c0.54,3,1.08,5.99,1.62,8.99
		C149.2,272.84,146.52,271.5,143.85,270.17z"/>
	<path class="st6" d="M163.76,215.18c0.95-0.72,1.89-1.44,2.84-2.17C166.42,214.74,166.66,217.02,163.76,215.18z"/>
	<path class="st6" d="M160.63,214.1c0.2,0.33,0.4,0.66,0.6,0.99c-0.78,0.06-1.56,0.13-2.33,0.19
		C159.48,214.88,160.05,214.49,160.63,214.1z"/>
	<path class="st6" d="M222.64,181.88l-0.44,0.18c0,0-0.48-0.03-0.48-0.03C222.03,181.98,222.34,181.93,222.64,181.88z"/>
	<path class="st6" d="M157.68,216.19c0.38-0.29,0.76-0.58,1.14-0.87C158.44,215.61,158.06,215.9,157.68,216.19z"/>
	<path class="st25" d="M351.5,97.15c1.7,4.67,3.41,9.35,5.11,14.02c-11.56-3.33-22.9-8.25-35.38-4.87
		c-3.48-1.79-6.73-5.81-10.85-1.06c-6.42-1.9-12.84-3.82-19.26-5.7c-1.84-0.54-3.71-0.95-5.57-1.43c2.47-2.92,3.71-6.1,2.04-9.88
		c6.47-3.43,13.15-1.94,19.71-0.57c9.46,1.99,18.84,4.35,28.26,6.55c1.38,0.32,3,1.26,4.11,0.84
		C344.13,93.37,347.84,94.83,351.5,97.15z"/>
	<path class="st25" d="M196.82,94.19c5.01-1.38,10.21-2.3,15-4.24c8.4-3.4,16.77-5.97,25.92-3.75c3.69,2.2,7.38,4.4,11.07,6.6
		c-2.85,5.21-7.67,6.39-13.07,6.4c-0.7-0.98-1.4-1.95-2.26-3.15c-1.76,1.63-3.17,2.94-4.59,4.25c-1.45-0.01-2.9-0.02-4.36-0.02
		c-2.7-4.08-6.01-6.86-12.43-5.35c2.43,3.71,4.54,6.94,6.65,10.17c-0.35,1.72-0.7,3.45-1.04,5.17c-2.9,0.34-5.99,0.17-8.62,1.19
		c-1.76,0.69-2.86,3.08-4.25,4.7c-1.37-2.32-2.74-4.65-4.1-6.97C201.58,103.65,199.63,98.81,196.82,94.19z"/>
	<path class="st25" d="M183.76,115.22c-0.16-1.24-0.31-2.48-0.52-4.11c-2,0.57-3.56,1-5.1,1.46c-5.85,1.77-11.23,1.95-15.36-3.76
		c-1.31-1.8-3.32-3.09-5.01-4.61c2.74-2.45,5.48-4.89,8.22-7.34c3.56-1.67,7.12-3.33,10.68-5c2.08,0.39,4.15,1.04,6.24,1.09
		c2.69,0.06,5.39-0.37,8.09-0.59c0.41,5.83,0.09,11.93,5.73,15.87C192.4,110.56,188.08,112.89,183.76,115.22z"/>
	<path class="st25" d="M254.43,84.75c0.51-1,0.99-2.85,1.53-2.87c4.98-0.17,7.71-3.39,10.59-6.85c2.37-2.84,4.9-1.53,6.24,0.32
		c4.05-0.97,7.53-1.8,11.43-2.73c0.21,5.3-3.01,6.05-5.81,7.26c-3.73,1.61-7.91,3.03-4.7,8.51c0.22,2.95,0.44,5.9,0.67,8.86
		c-3.95-0.69-7.9-1.37-11.85-2.06C262.07,89.95,258.28,87.33,254.43,84.75z"/>
	<path class="st22" d="M351.5,97.15c-3.65-2.32-7.37-3.78-11.84-2.09c-1.11,0.42-2.73-0.52-4.11-0.84
		c3.12-11.36,12.11-17.15,21.91-14.12c0.36,1.7,0.71,3.41,1.07,5.11c-1.6,2.28-3.2,4.55-4.8,6.83
		C352.98,93.75,352.24,95.45,351.5,97.15z"/>
	<path class="st17" d="M274.37,97.24c-0.22-2.95-0.45-5.9-0.67-8.86c4.76-5.56,8.69-5.6,13.89-0.14c1.67,3.78,0.43,6.96-2.04,9.88
		C281.61,100.47,277.79,101.37,274.37,97.24z"/>
	<path class="st28" d="M254.43,84.75c3.85,2.58,7.65,5.2,8.09,10.43c-4.57-0.79-9.14-1.58-13.71-2.37c-3.69-2.2-7.38-4.4-11.07-6.6
		c0.74-0.98,1.52-2.82,2.21-2.79C244.78,83.64,249.6,84.26,254.43,84.75z"/>
	<path class="st17" d="M176.67,91.86c-3.56,1.67-7.12,3.34-10.68,5c1.06-3.45,1.69-7.12,3.27-10.31c2.96-5.99,9.25-8.24,15.95-6.31
		C182.36,84.11,179.51,87.99,176.67,91.86z"/>
	<path class="st17" d="M215.53,71.24c-0.48-1.16-0.95-2.33-1.53-3.74c5.47-0.88,9.88,0.32,13.63,3.87c1.78,2.52,3.56,5.04,5.45,7.73
		C225.14,81.28,219.93,78.81,215.53,71.24z"/>
	<path class="st10" d="M196.72,108.23c-5.64-3.94-5.32-10.04-5.73-15.87c0.26-0.08,0.52-0.19,0.76-0.32
		c0.33,0.04,0.65-0.01,0.96-0.14c1.37,0.77,2.74,1.53,4.1,2.3c2.82,4.61,4.77,9.45,3.91,15.02
		C199.39,108.89,198.06,108.56,196.72,108.23z"/>
	<path class="st27" d="M229.75,69.2c-2.54-2.94-0.46-4.18,1.95-5.3c5.03-0.48,9.33,1.08,13.03,4.49
		C241.04,73.01,237.99,73.13,229.75,69.2z"/>
	<path class="st25" d="M192.71,91.9c-0.31,0.13-0.63,0.18-0.96,0.14C192.07,91.99,192.39,91.94,192.71,91.9z"/>
	<path class="st27" d="M565.28,334.28c7.22,3.43,7.68,5.01,3.04,10.37C567.31,341.19,566.29,337.74,565.28,334.28z"/>
	<path class="st12" d="M548.22,342.24c-0.02,1.32-0.04,2.64-0.06,3.96C548.18,344.88,548.2,343.56,548.22,342.24z"/>
	<path class="st14" d="M192.71,320.23c-2.22,4.88-5.2,8.55-11.17,9.05c-6.34,0.53-9-3.69-11.75-8.07c0.56-0.67,1.11-1.34,1.67-2.01
		c3.31,1.73,6.61,3.47,10.13,5.31c2.4-5.37,5.63-10.04,12.07-11.15c-0.02,1.2-0.04,2.39-0.06,3.59c-0.21,0.41-0.43,0.83-0.64,1.24
		C192.87,318.87,192.79,319.55,192.71,320.23z"/>
	<path class="st11" d="M193.59,316.95c0.02-1.2,0.04-2.39,0.06-3.59c0.07-0.33,0.12-0.66,0.14-0.99c2.26-2.71,4.52-5.43,6.78-8.15
		c2.16,2.49,4.32,4.97,6.86,7.9c-0.46,5.66-2.71,7.21-14.72,8.1c0.08-0.68,0.16-1.36,0.24-2.04
		C193.16,317.78,193.38,317.37,193.59,316.95z"/>
	<path class="st22" d="M177.92,300.1c-0.38,0.72-0.75,1.43-1.13,2.15c-6.59,4.27-10.6,4.18-16.6-0.93c2.76-1.74,5.3-3.35,7.84-4.95
		C171.56,296.99,176.62,293.56,177.92,300.1z"/>
	<path class="st22" d="M171.45,319.2c-0.56,0.67-1.11,1.34-1.67,2.01c-4.21,1.45-8.43,3.09-12.6-0.12
		c2.41-5.08,9.29-8.16,16.77-7.18C173.06,315.8,172.26,317.5,171.45,319.2z"/>
	<path class="st17" d="M135.81,257.3c0.68,2.99,1.35,5.99,2.03,8.98c0.11,2.72,0.21,5.44,0.32,8.15c-0.43,0.37-0.86,0.74-1.28,1.12
		C129.01,269.93,128.5,261.2,135.81,257.3z"/>
	<path class="st2" d="M144.82,305.21c0.37-1,0.73-2,1.1-3c2.65-1.74,4.81-0.82,5.18,1.96c0.44,3.26-0.13,6.65-0.27,9.98
		c-0.65,0.05-1.3,0.11-1.95,0.17c-1.37-2.7-2.73-5.41-4.1-8.11C144.8,305.88,144.81,305.55,144.82,305.21z"/>
	<path class="st5" d="M132.69,280.29c0.75-0.46,1.51-0.92,2.26-1.38c2.63,2.39,5.26,4.79,7.89,7.18c0.61,0.8,1.22,1.59,2.62,3.4
		c-2.72-0.69-4.2-1.06-5.67-1.43c-1.91-1.04-3.82-2.08-5.73-3.11C133.6,283.4,133.15,281.85,132.69,280.29z"/>
	<path class="st9" d="M142.84,286.09c-2.63-2.39-5.26-4.79-7.89-7.18c0.64-1.12,1.29-2.24,1.93-3.37c0.43-0.37,0.85-0.75,1.28-1.12
		C144.35,276.45,142.59,281.68,142.84,286.09z"/>
	<path class="st16" d="M559.34,499.99c-0.18-10.28-0.35-20.55-0.53-30.83c0.48,0.01,0.96,0.03,1.44,0.04
		c0.23,4,0.46,7.99,0.69,11.99c-0.31,1.72-0.79,3.43-0.91,5.16C559.72,490.89,559.56,495.44,559.34,499.99z"/>
	<path class="st16" d="M563.59,469.06c0,0,0.1-0.1,0.11-0.1C563.7,468.96,563.59,469.06,563.59,469.06z"/>
	<path class="st9" d="M248.81,92.81c4.57,0.79,9.14,1.58,13.71,2.37c3.95,0.69,7.9,1.37,11.85,2.06c3.42,4.13,7.24,3.22,11.18,0.89
		c1.86,0.47,3.73,0.89,5.57,1.43c6.43,1.88,12.84,3.79,19.26,5.7c1.36,1.83,2.36,4.29,4.18,5.32c2.37,1.34,5.38,1.53,8.11,2.22
		c-0.48-2.16-0.96-4.32-1.44-6.48c12.48-3.38,23.82,1.54,35.38,4.87c0.63,1.03,1.25,2.06,1.88,3.09c-1.28,4.44-0.28,5.58,6.98,7.96
		c-0.03,1.77-0.06,3.54-0.1,5.31c-1.35-0.96-2.61-2.08-4.05-2.84c-4.75-2.51-12.22-1.69-14.68,1.49c-1.12-0.2-2.49-0.05-3.33-0.66
		c-9.07-6.58-20.34-4.61-30.26-7.87c-1.24-0.41-2.88,0.37-4.33,0.6c-4.68-2.63-7.4,2.05-11.12,3c-0.55-3.66-2.59-5.98-6.25-6.61
		c-4.15-0.71-8.32-1.55-12.51-1.73c-2.71-0.12-5.47,0.84-8.21,1.31c-3.64,0.67-7.27,1.34-10.91,2.01c-3.64-1.67-7.28-3.34-10.92-5
		c-0.35-2.98-0.71-5.97-1.06-8.95c-0.64-0.24-1.29-0.49-1.93-0.73c-3.05,4.07-6.09,8.14-9.14,12.2c-3.52-2.05-7.2-2.88-11.19-1.6
		c-2.59-0.62-5.18-1.24-7.77-1.86c0.35-1.72,0.7-3.45,1.04-5.17c3.75,0.58,6.56,0.03,5.79-4.83c1.45,0.01,2.9,0.02,4.35,0.02
		c0.78,2.26,1.56,4.52,2.34,6.79c1.48-2.14,2.98-4.25,4.4-6.43c0.23-0.36,0.08-0.97,0.11-1.47
		C241.13,99.2,245.95,98.03,248.81,92.81z"/>
	<path class="st15" d="M346.69,151.2c-0.84-0.38-2.02-1.32-2.47-1.05c-1.36,0.82-2.45,2.11-3.64,3.22
		c-2.03-6.16-2.38-6.34-8.12-4.31c0.21-0.63,0.43-1.27,0.82-2.43c-2.65,1.42-4.7,2.51-6.75,3.61c-0.38-2.87,1.56-7.07-3.98-7.01
		c1.78-1.35,3.54-2.74,5.36-4.04c1.46-1.04,3-1.96,4.5-2.93c5.74-3.89,11.57-1.56,17.23,0c14.65,4.03,29.24,8.26,43.81,12.56
		c3.3,0.98,6.61,2.31,7.02,6.67c0.06,0.64,1.31,1.17,2.01,1.76c-1.33,3.33-2.66,6.66-3.99,9.98c-9.1-4.22-18.14-8.57-27.32-12.61
		C363.37,151.2,355.39,148.43,346.69,151.2z"/>
	<path class="st15" d="M365.47,122.23c-7.27-2.38-8.27-3.53-6.98-7.96c2.15-0.02,4.3-0.04,6.44-0.07c4.57-0.06,4.57-0.06,6.23-4.68
		c4.13,0.44,7.65,6.1,12.43,1.75c4.28,1.92,8.55,1.64,12.82-0.01c0.55,5.26-3.05,8.44-5.98,11.96c-4.94,6.04-11.92,4.69-18.36,4.8
		c-1.71,0.03-5.03,0.04-4.05-3.84C368.11,123.77,366.36,122.89,365.47,122.23z"/>
	<path class="st12" d="M346.64,126.18c2.46-3.17,9.93-3.99,14.68-1.49c1.45,0.76,2.71,1.88,4.05,2.84c1.64,2,3.28,4,5.49,6.7
		C360.46,136.35,352.57,134.22,346.64,126.18z"/>
	<path class="st26" d="M332.4,136.25c-1.5,0.97-3.04,1.89-4.5,2.93c-1.82,1.3-3.57,2.69-5.36,4.04c-2.35,2.35-4.97,2.07-7.56,0.58
		c-3.65-2.1-5.17-5.28-4.37-9.49c2.42-0.35,4.82-0.8,7.25-1.02C322.99,132.84,328.03,132.95,332.4,136.25z"/>
	<path class="st26" d="M297.59,121.25c3.72-0.95,6.44-5.63,11.12-3c-1.72,2.98-3.44,5.95-5.15,8.93c-3.67,1.02-7.34,2.04-11,3.06
		C294.24,127.25,295.91,124.25,297.59,121.25z"/>
	<path class="st9" d="M390.42,123.22c2.92-3.52,6.53-6.7,5.98-11.96c0.01-0.36,0.03-0.72,0.04-1.07c1.15,4.6,2.3,9.21,3.45,13.81
		c-1.25,0.79-2.51,1.58-3.76,2.38C391.73,129.19,390.9,128.73,390.42,123.22z"/>
	<path class="st25" d="M108.1,186.19c-2.44-1.45-4.88-2.91-7.32-4.37c0.62-6.43,1.25-12.85,1.87-19.27
		c3.23-2.19,4.95-2.05,4.93,2.58c-0.01,1.34,1.9,2.69,2.93,4.03c0.8-1.29,2.18-2.54,2.28-3.88c0.27-3.82-2.51-8.27,2.53-10.92
		c1.8-0.95,3.76-1.59,5.64-2.37c1.61-0.16,3.47,0.15,4.77-0.57c5.51-3.07,6.95-8.32,6.92-14.2c1.71,0.68,3.42,1.36,5.13,2.03
		c1.82,5.54,5.49,9.22,11.05,11.01c-0.3,1.09-0.4,2.29-0.92,3.25c-2.47,4.61-5.07,9.15-7.6,13.72c-1.3,2.35-2.55,4.74-3.97,7.39
		c-4.23-2.58-2.53-10.48-9.46-8.4c-1.8-1.28-3.6-2.56-5.41-3.83c-0.21,2.25-0.45,4.49-0.61,6.74c-0.03,0.46,0.24,0.95,0.37,1.42
		c-1.63,1.57-3.39,3.04-4.85,4.75c-1.9,2.22-2.95,4.56,0.87,6.07c-0.77,1.28-1.53,2.57-2.3,3.85
		C112.66,185.54,110.38,185.87,108.1,186.19z"/>
	<path class="st9" d="M196.72,108.23c1.34,0.33,2.67,0.66,4.01,0.99c1.37,2.32,2.74,4.64,4.1,6.97c0.8,0.58,1.6,1.16,2.4,1.73
		c-4.51,2.46-3.25,7.27-4.49,11.06c-2.44-0.24-4.88-0.65-7.33-0.7c-6.68-0.12-7.31,0.72-5.62,6.93c-2.82,0.91-5.85,1.43-8.42,2.81
		c-11.61,6.23-11.56,6.32-24.6,6.16c0.34-0.97,0.68-1.93,1.02-2.9c7.22-2.17,11.8-6.92,13.88-14.15c7.41-0.53,9.32-6.65,12.08-11.92
		C188.08,112.89,192.4,110.56,196.72,108.23z"/>
	<path class="st25" d="M157.8,141.29c-0.34,0.97-0.68,1.93-1.02,2.9c-1.01,1.01-2.01,2.01-3.02,3.02c-1.36,0.69-2.72,1.39-4.08,2.08
		c-2.62-4.68-5.24-9.36-7.86-14.04c0.31-1.6,0.12-3.59,1.01-4.73c2.42-3.1,3.26-5.72,1.8-9.88c-0.54-1.54,4.05-4.89,6.36-7.35
		c0.24-0.25,1-0.17,1.45-0.03c2.71,0.88,5.39,1.82,8.08,2.74c-1.51,2.1-3.02,4.2-4.81,6.71c1.37,2.29,3.24,5.44,5.12,8.58
		C159.82,134.62,158.81,137.95,157.8,141.29z"/>
	<path class="st17" d="M132.65,137.22c0.03,5.88-1.41,11.14-6.92,14.2c-1.3,0.72-3.17,0.41-4.77,0.57
		c-0.36-7.02,3.19-11.65,9.11-14.74C130.75,136.89,131.78,137.21,132.65,137.22z"/>
	<path class="st14" d="M157.8,141.29c1.01-3.34,2.02-6.67,3.04-10.01c1.61-1.81,3.08-3.76,4.85-5.38c2.4-2.2,4.82-3.14,6,1.24
		C169.6,134.36,165.01,139.12,157.8,141.29z"/>
	<path class="st14" d="M141.82,135.24c2.62,4.68,5.24,9.36,7.86,14.04c-0.29,0.33-0.57,0.65-0.86,0.98
		c-5.55-1.79-9.22-5.47-11.05-11.01c-0.17-1.43-0.33-2.87-0.57-4.92C138.88,134.67,140.35,134.95,141.82,135.24z"/>
	<path class="st15" d="M165.77,197.18c-1.66,3.02-3.31,6.04-4.97,9.06c-7.41,0.47-12.11,5.4-16.83,10.3
		c-1.76-3.63-7.45-3.33-9.63,1.18c-2.17,4.49-3.04,9.62-4.48,14.47c-1.75-0.35-3.64-0.38-5.22-1.11c-3.99-1.84-7.83-3.99-11.73-6.01
		c0-2.14,0-4.29,0-6.43c4.36-1.51,8.88-2.68,13.03-4.63c2.94-1.39,5.72-3.62,4.93-7.75c5.57,1.53,10.04-0.9,14.15-4.17
		c0.68-0.54,0.57-2.08,0.83-3.15c0.35-0.91,0.7-1.83,1.04-2.74c0.99-0.02,1.98-0.04,2.97-0.06c8.53-2.41,10.56-4.42,10.85-10.73
		c0.48-2.91-1.01-6.94,4.12-7.16c-0.01,0.98-0.01,1.96-0.02,2.94c-0.5,1.69-0.91,3.41-1.51,5.07
		C161.78,190.44,160.65,194.5,165.77,197.18z"/>
	<path class="st8" d="M146.88,196.19c-0.35,0.91-0.7,1.83-1.04,2.75c-6.03,0.16-11.85,0.8-15.22,6.87
		c-3.91,0.17-7.82,0.34-11.73,0.51c-1.91-2.69-1.87-5.14,0.3-7.84c1.24-1.55,1.71-3.71,2.53-5.6c1.34-2.88,2.69-5.76,4.03-8.64
		c0.95-0.16,2.39,0.02,2.78-0.53c2.96-4.18,6.51-3.22,10.24-1.47C141.48,186.88,144.18,191.53,146.88,196.19z"/>
	<path class="st12" d="M121.33,253.43c1.3,2.86,2.61,5.72,4.22,9.25c-2.93,0.23-4.81,0.38-6.69,0.52c-4.91-1.37-9.82-2.73-14.73-4.1
		c-3.16-4.26-6.32-8.51-9.48-12.77c0.39-0.49,0.77-0.99,1.16-1.48c4.69,0.47,9.38,0.94,14.07,1.41
		C113.7,248.65,117.51,251.04,121.33,253.43z"/>
	<path class="st15" d="M121.33,253.43c-3.82-2.39-7.63-4.78-11.45-7.17c1.03-2.43,2.06-4.86,3.09-7.29
		c1.81-0.49,3.65-1.47,5.43-1.37c3.5,0.2,6.96,1,10.44,1.55C128.24,244.92,126.15,249.9,121.33,253.43z"/>
	<path class="st22" d="M128.83,239.15c-3.48-0.55-6.94-1.35-10.44-1.55c-1.78-0.1-3.62,0.88-5.43,1.37
		c-0.49-3.71-1.09-7.41-1.39-11.13c-0.07-0.88,0.86-1.84,1.33-2.77c3.9,2.02,7.75,4.17,11.73,6.01c1.58,0.73,3.47,0.76,5.22,1.11
		c1.28,0.61,2.56,1.22,4.82,2.3C132.36,236.33,130.6,237.74,128.83,239.15z"/>
	<path class="st24" d="M118.89,206.31c3.91-0.17,7.82-0.34,11.73-0.51c0.07,0.16,0.15,0.31,0.25,0.46c0.79,4.12-1.99,6.36-4.93,7.75
		c-4.15,1.95-8.67,3.13-13.03,4.63c-0.41-1.11-1.5-2.69-1.11-3.25C113.96,212.23,116.48,209.31,118.89,206.31z"/>
	<path class="st17" d="M125.75,184.23c-1.34,2.88-2.69,5.76-4.03,8.64c-5.41,0.51-6.31-0.5-6.78-7.65c0.77-1.28,1.53-2.57,2.3-3.85
		C121.15,179.08,124.05,179.86,125.75,184.23z"/>
	<path class="st22" d="M99.79,212.33c1.31-1.89,2.62-3.77,3.93-5.66c4.98-0.65,4.43,2.84,3.8,5.66c-0.39,1.74-1.99,3.21-3.24,5.08
		C102.55,215.44,101.17,213.88,99.79,212.33z"/>
	<path class="st27" d="M353.73,92.05c1.6-2.28,3.2-4.55,4.8-6.83c0.56,0.38,1.12,0.76,1.68,1.13c-0.5,1.37-0.99,2.74-1.56,4.31
		c0.99,0.49,2.06,1.02,3.14,1.55C359.1,92.15,356.41,92.1,353.73,92.05z"/>
	<path class="st27" d="M559.34,499.99c0.22-4.55,0.38-9.1,0.69-13.64c0.12-1.73,0.6-3.44,0.91-5.16c0.55,4.71,1.27,9.41,1.57,14.13
		c0.19,2.95-0.27,5.95-0.43,8.92c-0.82-0.32-1.65-0.63-2.47-0.95C559.52,502.2,559.43,501.09,559.34,499.99z"/>
	<path class="st27" d="M566.32,505.14c-1.39-0.26-2.79-0.51-4.18-0.77C563.54,504.62,564.93,504.88,566.32,505.14z"/>
	<path class="st28" d="M322.03,44.68c-0.03-0.26-0.06-0.52-0.09-0.78c0.22,0.14,0.43,0.29,0.65,0.43
		C322.52,44.64,322.34,44.76,322.03,44.68z"/>
	<path class="st27" d="M559.14,504.44c-0.65-0.01-1.3-0.02-1.95-0.03C557.84,504.42,558.49,504.43,559.14,504.44z"/>
	<path class="st27" d="M132.69,280.29c0.45,1.55,0.91,3.11,1.36,4.66c-1.04,2.65-2.07,5.31-3.1,7.97c-0.28-0.11-0.56-0.22-0.84-0.33
		c-0.69-3.75-1.37-7.49-2.06-11.24C129.6,281,131.15,280.65,132.69,280.29z"/>
	<path class="st15" d="M235.71,125.15c-1.39,1.03-2.69,2.71-4.2,2.94c-3.35,0.51-4.6,1.71-2.91,4.89c1.75,3.29,1.26,5.1-2.53,6.81
		c-6.71,3.04-13.04,6.92-19.52,10.45c-0.96-1.97-1.92-3.93-2.88-5.9c0.84-1.8,1.68-3.59,2.51-5.38c2.63,0.37,5.27,0.73,8.57,1.19
		c-0.6-2.1-0.94-3.29-1.28-4.49c1.78-4.33,3.43-8.72,5.41-12.95c0.53-1.14,2.05-2.59,3.09-2.57c4.49,0.09,8.96,0.67,13.44,1.08
		C235.52,122.54,235.61,123.84,235.71,125.15z"/>
	<path class="st15" d="M192.75,171.21c-5.98,2.01-11.96,4.02-17.94,6.03c4.26-4.48,6.88-9.66,6.93-15.97
		c2.66-9.36,7.78-13.88,15.88-14.03c2.37,2.05,4.75,4.11,7.12,6.16c-0.43,0.64-0.77,1.72-1.31,1.84c-5.33,1.14-6.2,4.93-5.87,9.51
		c-2.18-0.15-4.36-0.29-7.4-0.5C191.23,167.12,191.99,169.16,192.75,171.21z"/>
	<path class="st8" d="M297.59,121.25c-1.68,3-3.36,5.99-5.04,8.99c-4.02-0.69-8.03-1.38-12.05-2.07c2.43-3.97,1.65-5.64-2.86-5.88
		c-1.32-0.07-2.65,0.09-3.97,0.14c-1.7-1.41-3.4-2.81-5.1-4.22c0.68-1.33,1.35-2.65,2.03-3.98c2.74-0.48,5.5-1.43,8.21-1.31
		c4.19,0.18,8.36,1.03,12.51,1.73C295,115.27,297.05,117.59,297.59,121.25z"/>
	<path class="st15" d="M268.59,118.21c1.7,1.41,3.4,2.81,5.1,4.22c-2.61,1.89-5.23,3.79-7.84,5.69c-8.54-1.7-17.08-3.4-25.62-5.11
		c2.85-3.92,5.71-7.85,8.56-11.77c3.64,1.67,7.28,3.34,10.92,5c-1.53,0.55-3.06,1.11-4.59,1.66
		C261.51,123.47,264.83,119.3,268.59,118.21z"/>
	<path class="st27" d="M248.79,111.23c-2.85,3.92-5.71,7.85-8.56,11.77c-1.5,0.72-3.01,1.43-4.51,2.15c-0.1-1.31-0.2-2.61-0.29-3.92
		c0.41-2.49,0.83-4.98,1.24-7.47c3.05-4.07,6.09-8.14,9.14-12.2c0.64,0.24,1.29,0.49,1.93,0.73
		C248.08,105.27,248.43,108.25,248.79,111.23z"/>
	<path class="st26" d="M181.74,161.27c-0.05,6.31-2.68,11.5-6.93,15.97c-3.33,1.31-6.67,2.62-10,3.93c0.01-0.98,0.01-1.96,0.02-2.94
		c0.86-1.76,1.68-3.55,2.57-5.29C170.48,166.96,174.81,162.5,181.74,161.27z"/>
	<path class="st12" d="M192.75,171.21c-0.76-2.05-1.52-4.09-2.59-6.95c3.04,0.2,5.22,0.35,7.4,0.5c4.48,2.02,8.31,4.61,9.17,10.28
		C200.96,177.14,196.66,174.92,192.75,171.21z"/>
	<path class="st14" d="M265.84,128.11c2.61-1.9,5.23-3.79,7.84-5.69c1.32-0.05,2.65-0.21,3.97-0.14c4.5,0.25,5.29,1.91,2.86,5.88
		C275.62,128.15,270.73,128.13,265.84,128.11z"/>
	<path class="st14" d="M204.75,153.4c-2.37-2.05-4.75-4.11-7.12-6.16c-0.97-2.11-1.95-4.22-2.92-6.33c0.38-0.37,0.76-0.74,1.13-1.11
		c2.61,1.52,5.22,3.04,7.83,4.56c0.96,1.97,1.92,3.93,2.88,5.9C205.95,151.3,205.35,152.35,204.75,153.4z"/>
	<path class="st13" d="M326.53,150.24c2.05-1.1,4.1-2.19,6.75-3.61c-0.39,1.16-0.6,1.8-0.82,2.43c-2.61,2.02-5.07,4.3-7.89,5.95
		c-1.54,0.9-3.7,0.73-5.58,1.04c-0.16-0.62-0.32-1.23-0.48-1.85C321.18,152.87,323.85,151.55,326.53,150.24z"/>
	<path class="st22" d="M321.22,106.31c0.48,2.16,0.96,4.32,1.44,6.48c-2.73-0.69-5.74-0.88-8.11-2.22
		c-1.81-1.03-2.81-3.49-4.18-5.32C314.49,100.5,317.75,104.52,321.22,106.31z"/>
	<path class="st27" d="M207.23,117.92c-0.8-0.58-1.6-1.16-2.4-1.73c1.39-1.63,2.49-4.02,4.25-4.7c2.63-1.03,5.72-0.86,8.62-1.19
		c2.59,0.62,5.18,1.24,7.77,1.86C220.11,116.35,214.17,118.72,207.23,117.92z"/>
	<path class="st10" d="M224.53,100.29c0.77,4.86-2.04,5.41-5.79,4.83c-2.11-3.23-4.22-6.46-6.65-10.17
		C218.52,93.43,221.83,96.21,224.53,100.29z"/>
	<path class="st10" d="M235.74,99.21c-0.03,0.49,0.12,1.11-0.11,1.47c-1.42,2.17-2.92,4.29-4.4,6.43c-0.78-2.26-1.56-4.52-2.34-6.79
		c1.42-1.31,2.83-2.62,4.59-4.25C234.34,97.26,235.04,98.23,235.74,99.21z"/>
	<path class="st6" d="M193.59,316.95c-0.22,0.41-0.43,0.83-0.65,1.24C193.16,317.78,193.38,317.37,193.59,316.95z"/>
	<path class="st8" d="M207.23,117.92c6.94,0.8,12.88-1.56,18.24-5.77c3.99-1.29,7.67-0.45,11.19,1.6c-0.41,2.5-0.83,4.99-1.24,7.48
		c-4.48-0.4-8.95-0.99-13.44-1.08c-1.04-0.02-2.56,1.43-3.09,2.57c-1.98,4.24-3.63,8.62-5.41,12.95c-3.58-2.23-7.16-4.46-10.74-6.69
		C203.98,125.19,202.72,120.38,207.23,117.92z"/>
	<path class="st26" d="M268.59,118.21c-3.76,1.09-7.07,5.26-13.47-0.31c1.53-0.55,3.06-1.11,4.59-1.66
		c3.64-0.67,7.27-1.34,10.91-2.01C269.94,115.55,269.26,116.88,268.59,118.21z"/>
	<path class="st9" d="M125.75,184.23c-1.7-4.36-4.6-5.15-8.52-2.86c-3.82-1.51-2.77-3.85-0.86-6.07c1.47-1.71,3.23-3.18,4.85-4.75
		c1.01,0.95,2.03,1.9,4.12,3.86c0.67-3.59,1.1-5.89,1.53-8.18c6.93-2.08,5.23,5.82,9.46,8.4c1.43-2.66,2.67-5.04,3.97-7.39
		c2.53-4.58,5.13-9.12,7.6-13.72c0.52-0.97,0.62-2.16,0.92-3.25c0.29-0.33,0.57-0.66,0.86-0.98c1.36-0.69,2.72-1.39,4.08-2.08
		c2.08,5.52,7.33,4.83,13.16,5.61c-2.2,3.1-3.74,5.29-5.29,7.47c-7.43-0.02-11.24,2.35-12.23,8.04c2.19,0,4.31,0,6.42,0
		c-0.67,4.59-1.34,9.19-2,13.78c-1.7,2-3.41,4-5.11,6c-3.31-1.96-6.63-3.92-9.94-5.88c-3.73-1.75-7.28-2.71-10.24,1.47
		C128.14,184.25,126.7,184.07,125.75,184.23z"/>
	<path class="st17" d="M126.87,166.23c-0.43,2.3-0.86,4.59-1.53,8.18c-2.09-1.96-3.11-2.9-4.12-3.86c-0.13-0.48-0.4-0.96-0.37-1.42
		c0.16-2.25,0.4-4.49,0.61-6.74C123.27,163.67,125.07,164.95,126.87,166.23z"/>
	<path class="st8" d="M161.64,160.28c1.55-2.18,3.09-4.36,5.29-7.47c-5.83-0.78-11.08-0.09-13.16-5.61
		c1.01-1.01,2.01-2.01,3.02-3.02c13.04,0.16,12.99,0.07,24.59-6.16c2.57-1.38,5.6-1.9,8.42-2.81c0.53,0.36,1.25,1.14,1.56,1
		c5.61-2.53,9.99,1.37,14.83,2.75c-0.84,1.79-1.68,3.59-2.51,5.38c-2.61-1.52-5.22-3.04-7.83-4.56c-0.38,0.37-0.76,0.74-1.13,1.11
		c0.97,2.11,1.95,4.22,2.92,6.33c-8.1,0.15-13.22,4.67-15.88,14.03c-6.94,1.23-11.27,5.69-14.34,11.67
		c-0.9,1.74-1.72,3.53-2.57,5.29c-5.13,0.22-3.65,4.26-4.12,7.16c-2.29-1.1-4.59-2.19-6.88-3.29c0.67-4.59,1.34-9.19,2-13.78
		C160.05,167.3,162.26,164.82,161.64,160.28z"/>
	<path class="st17" d="M206.18,138.97c-4.85-1.39-9.22-5.28-14.83-2.75c-0.31,0.14-1.03-0.65-1.56-1c-1.68-6.21-1.05-7.05,5.62-6.93
		c2.45,0.04,4.89,0.46,7.33,0.7c3.58,2.23,7.16,4.46,10.74,6.69c0.34,1.2,0.68,2.4,1.28,4.5
		C211.45,139.71,208.82,139.34,206.18,138.97z"/>
	<path class="st14" d="M153.82,182.1c2.29,1.1,4.59,2.19,6.88,3.29c-0.3,6.32-2.33,8.33-10.86,10.74c-0.38-2.68-0.75-5.35-1.13-8.03
		C150.42,186.1,152.12,184.1,153.82,182.1z"/>
	<path class="st12" d="M130.86,206.26c-0.09-0.15-0.18-0.3-0.25-0.46c3.37-6.06,9.19-6.71,15.22-6.87
		c-0.26,1.08-0.15,2.61-0.83,3.15C140.9,205.36,136.43,207.79,130.86,206.26z"/>
	<path class="st26" d="M148.71,188.1c0.38,2.68,0.75,5.35,1.13,8.03c-0.99,0.02-1.98,0.04-2.97,0.06c-2.7-4.66-5.4-9.31-8.11-13.97
		C142.09,184.18,145.4,186.14,148.71,188.1z"/>
	<path class="st14" d="M161.64,160.28c0.63,4.54-1.58,7.02-5.81,8.04c-2.11,0-4.23,0-6.42,0
		C150.4,162.63,154.21,160.26,161.64,160.28z"/>
</g>
</svg>
